<?xml version="1.0" encoding="utf-8"?>
<!-- Generator: Adobe Illustrator 17.1.0, SVG Export Plug-In . SVG Version: 6.00 Build 0)  -->
<!DOCTYPE svg PUBLIC "-//W3C//DTD SVG 1.1//EN" "http://www.w3.org/Graphics/SVG/1.1/DTD/svg11.dtd">
<svg version="1.1" id="Layer_1" xmlns="http://www.w3.org/2000/svg" xmlns:xlink="http://www.w3.org/1999/xlink" x="0px" y="0px"
	 viewBox="0 0 22.1 19.2" enable-background="new 0 0 22.1 19.2" xml:space="preserve">
<path fill="#C16C29" d="M9.2,0L9.2,0c0.3,1.1,1.7,1.6,2.6,0.9l0,0l0,0c-0.4,1.1,0.4,2.2,1.6,2.2l0,0l0,0c-1,0.7-1,2.1,0,2.7l0,0l0,0
	c-1.2,0-2,1.1-1.6,2.2l0,0l0,0c-0.9-0.7-2.3-0.3-2.6,0.8l0,0l0,0C8.9,7.7,7.6,7.3,6.6,8l0,0l0,0C7,6.9,6.2,5.8,5,5.8l0,0l0,0
	c1-0.7,1-2.1,0-2.7l0,0l0,0c1.2,0,2-1.1,1.6-2.2l0,0l0,0C7.6,1.6,8.9,1.1,9.2,0L9.2,0z"/>
<path fill="#00B188" d="M15.9,10.8c0.9,0.1,2.8,0.7,4.2,1.6c2,1.3,2.4,2.5,1.7,2.7c-0.7,0.2-1.8-1.1-3.1-2c-1.4-0.9-3-1.8-3.2-1.9
	C15.3,11,15.2,10.8,15.9,10.8"/>
<path fill="#00B188" d="M11.4,11c0.2-0.2,2-0.3,5.5,1.9c3.5,2.1,3.9,4.1,3,4.8c-0.9,0.7-2.1-0.5-2.8-1.5c-0.7-1.1-3.2-3.4-4.5-4.1
	C11.4,11.3,11.2,11.2,11.4,11"/>
<path fill="#00B188" d="M5.6,11.3c0-0.3,1-0.6,2.8-0.2c1.8,0.4,3.9,1.4,6,3.7c2.1,2.3,1.6,3.9,0.1,4.3c-1.5,0.4-2.6-0.9-3.7-2.8
	C9.5,14.2,7,12.4,6.3,12S5.6,11.5,5.6,11.3"/>
<path fill="#00B188" d="M2,12c-0.1-0.3,1.4-0.6,3.1,0.5c1.8,1.1,4,3,4.1,5.3c0.1,2.2-2.4,1.3-3,0.1c-0.6-1.3-1.6-3.2-2.9-4.5
	C2,12.2,2,12.2,2,12"/>
<path fill="#00B188" d="M0.2,12.5c0.2-0.1,1.2,0,2.2,1.6c1,1.6,1.3,3,0,3.4c-1.3,0.3-1.7-1.9-2-3C0.2,13.8-0.3,12.8,0.2,12.5"/>
</svg>
