<?xml version="1.0" encoding="utf-8"?>
<!-- Generator: Adobe Illustrator 17.1.0, SVG Export Plug-In . SVG Version: 6.00 Build 0)  -->
<!DOCTYPE svg PUBLIC "-//W3C//DTD SVG 1.1//EN" "http://www.w3.org/Graphics/SVG/1.1/DTD/svg11.dtd">
<svg version="1.1" id="Layer_1" xmlns="http://www.w3.org/2000/svg" xmlns:xlink="http://www.w3.org/1999/xlink" x="0px" y="0px"
	 viewBox="0 0 57.3 75.7" enable-background="new 0 0 57.3 75.7" xml:space="preserve">
<path fill="#3e313b" d="M48.3,0H9C4,0,0,4,0,9v57.7c0,5,4,9,9,9h39.3c5,0,9-4,9-9V9C57.3,4,53.3,0,48.3,0z M48,50.2
	c0,2-1.6,3.6-3.6,3.6H13c-2,0-3.6-1.6-3.6-3.6V13.9c0-2,1.6-3.6,3.6-3.6h31.4c2,0,3.6,1.6,3.6,3.6V50.2z"/>
</svg>
