<?xml version="1.0" encoding="utf-8"?>
<!-- Generator: Adobe Illustrator 17.1.0, SVG Export Plug-In . SVG Version: 6.00 Build 0)  -->
<!DOCTYPE svg PUBLIC "-//W3C//DTD SVG 1.1//EN" "http://www.w3.org/Graphics/SVG/1.1/DTD/svg11.dtd">
<svg version="1.1" id="Layer_1" xmlns="http://www.w3.org/2000/svg" xmlns:xlink="http://www.w3.org/1999/xlink" x="0px" y="0px"
	 viewBox="0 0 61 61" enable-background="new 0 0 61 61" xml:space="preserve">
<circle fill="#C66E53" cx="30.5" cy="30.5" r="30.5"/>
<path fill-rule="evenodd" clip-rule="evenodd" fill="#F6EFD1" d="M52.2,26.3h-0.2c-0.7,0-1.3,0.6-1.3,1.3v0c0,0.7-0.6,1.3-1.3,1.3
	l0,0c-1.1,0-2.1-0.8-2.3-1.9c-0.4-2.1-1.2-4.1-2.4-5.8c-0.6-1-0.5-2.2,0.3-3.1l0,0c0.5-0.5,1.4-0.5,1.9,0l0,0c0.5,0.5,1.4,0.5,1.9,0
	l0.2-0.2c0.5-0.5,0.5-1.4,0-1.9l-4-4c-0.5-0.5-1.4-0.5-1.9,0l-0.2,0.2c-0.5,0.5-0.5,1.4,0,1.9l0,0c0.5,0.5,0.5,1.4,0,1.9l0,0
	c-0.8,0.8-2.1,0.9-3.1,0.3c-1.7-1.1-3.7-2-5.8-2.4c-1.1-0.2-1.9-1.2-1.9-2.3v0c0-0.7,0.6-1.3,1.3-1.3h0c0.7,0,1.3-0.6,1.3-1.3V8.8
	c0-0.7-0.6-1.3-1.3-1.3h-5.7c-0.7,0-1.3,0.6-1.3,1.3V9c0,0.7,0.6,1.3,1.3,1.3h0c0.7,0,1.3,0.6,1.3,1.3v0c0,1.1-0.8,2.1-1.9,2.3
	c-2.1,0.4-4.1,1.2-5.8,2.4c-1,0.6-2.2,0.5-3.1-0.3l0,0c-0.5-0.5-0.5-1.4,0-1.9l0,0c0.5-0.5,0.5-1.4,0-1.9l-0.2-0.2
	c-0.5-0.5-1.4-0.5-1.9,0l-4,4c-0.5,0.5-0.5,1.4,0,1.9l0.2,0.2c0.5,0.5,1.4,0.5,1.9,0l0,0c0.5-0.5,1.4-0.5,1.9,0l0,0
	c0.8,0.8,0.9,2.1,0.3,3.1c-1.1,1.7-2,3.7-2.4,5.8c-0.2,1.1-1.2,1.9-2.3,1.9l0,0c-0.7,0-1.3-0.6-1.3-1.3v0c0-0.7-0.6-1.3-1.3-1.3
	l-0.2,0c-0.7,0-1.3,0.6-1.3,1.3l0,5.7c0,0.7,0.6,1.3,1.3,1.3l0.2,0c0.7,0,1.3-0.6,1.3-1.3v0c0-0.7,0.6-1.3,1.3-1.3l0,0
	c1.1,0,2.1,0.8,2.3,1.9c0.4,2.1,1.2,4.1,2.4,5.8c0.6,1,0.5,2.2-0.3,3.1l0,0c-0.5,0.5-1.4,0.5-1.9,0l0,0c-0.5-0.5-1.4-0.5-1.9,0
	l-0.2,0.2c-0.5,0.5-0.5,1.4,0,1.9l4,4c0.5,0.5,1.4,0.5,1.9,0l0.2-0.2c0.5-0.5,0.5-1.4,0-1.9l0,0c-0.5-0.5-0.5-1.4,0-1.9l0,0
	c0.8-0.8,2.1-0.9,3.1-0.3c1.7,1.1,3.7,2,5.8,2.4c1.1,0.2,1.9,1.2,1.9,2.3l0,0c0,0.7-0.6,1.3-1.3,1.3h0c-0.7,0-1.3,0.6-1.3,1.3l0,0.2
	c0,0.7,0.6,1.3,1.3,1.3l5.7,0c0.7,0,1.3-0.6,1.3-1.3l0-0.2c0-0.7-0.6-1.3-1.3-1.3h0c-0.7,0-1.3-0.6-1.3-1.3l0,0
	c0-1.1,0.8-2.1,1.9-2.3c2.1-0.4,4.1-1.2,5.8-2.4c1-0.6,2.2-0.5,3.1,0.3l0,0c0.5,0.5,0.5,1.4,0,1.9l0,0c-0.5,0.5-0.5,1.4,0,1.9
	l0.2,0.2c0.5,0.5,1.4,0.5,1.9,0l4-4c0.5-0.5,0.5-1.4,0-1.9l-0.2-0.2c-0.5-0.5-1.4-0.5-1.9,0l0,0c-0.5,0.5-1.4,0.5-1.9,0l0,0
	c-0.8-0.8-0.9-2.1-0.3-3.1c1.1-1.7,2-3.7,2.4-5.8c0.2-1.1,1.2-1.9,2.3-1.9l0,0c0.7,0,1.3,0.6,1.3,1.3l0,0c0,0.7,0.6,1.3,1.3,1.3h0.3
	c0.7,0,1.3-0.6,1.3-1.3l0-5.7C53.5,26.9,52.9,26.3,52.2,26.3z"/>
</svg>
