<?xml version="1.0" encoding="utf-8"?>
<!-- Generator: Adobe Illustrator 17.1.0, SVG Export Plug-In . SVG Version: 6.00 Build 0)  -->
<!DOCTYPE svg PUBLIC "-//W3C//DTD SVG 1.1//EN" "http://www.w3.org/Graphics/SVG/1.1/DTD/svg11.dtd">
<svg version="1.1" id="Layer_1" xmlns="http://www.w3.org/2000/svg" xmlns:xlink="http://www.w3.org/1999/xlink" x="0px" y="0px"
	 viewBox="0 0 74.3 57.7" enable-background="new 0 0 74.3 57.7" xml:space="preserve">
<path fill="#3e313b" d="M65.3,0H9C4,0,0,4,0,9v39.7c0,5,4,9,9,9h56.3c5,0,9-4,9-9V9C74.3,4,70.3,0,65.3,0z M57.9,10.2l-20.7,18
	l-19.9-18H57.9z M61.3,47.8H13c-2,0-3.6-1.6-3.6-3.6V13.9c0,0,0,0,0,0l27.8,25.1L65,14.7v29.5C65,46.2,63.4,47.8,61.3,47.8z"/>
</svg>
