<?xml version="1.0" encoding="utf-8"?>
<!-- Generator: Adobe Illustrator 17.1.0, SVG Export Plug-In . SVG Version: 6.00 Build 0)  -->
<!DOCTYPE svg PUBLIC "-//W3C//DTD SVG 1.1//EN" "http://www.w3.org/Graphics/SVG/1.1/DTD/svg11.dtd">
<svg version="1.1" id="Layer_1" xmlns="http://www.w3.org/2000/svg" xmlns:xlink="http://www.w3.org/1999/xlink" x="0px" y="0px"
	 viewBox="0 0 8.8 8.8" enable-background="new 0 0 8.8 8.8" xml:space="preserve">
<g>
	<circle fill="#F6EFD1" cx="4.5" cy="4.5" r="0.9"/>
	<g>
		<path fill="#F6EFD1" d="M4.5,2.4c0.5,0,0.9,0.1,1.2,0.4h1.6h1.5V2.2C8.8,1,7.8,0,6.6,0H2.2C1,0,0,1,0,2.2v0.6h3.2
			C3.6,2.6,4,2.4,4.5,2.4z M6.3,1.3c0-0.1,0.1-0.2,0.2-0.2h0.8c0.1,0,0.2,0.1,0.2,0.2v0.8c0,0.1-0.1,0.2-0.2,0.2H6.5
			c-0.1,0-0.2-0.1-0.2-0.2V1.3z"/>
		<path fill="#F6EFD1" d="M6.5,4.5c0,1.2-0.9,2.1-2.1,2.1S2.4,5.7,2.4,4.5c0-0.3,0.1-0.6,0.2-0.9H0v3c0,1.2,1,2.2,2.2,2.2h4.4
			c1.2,0,2.2-1,2.2-2.2v-3H6.3C6.5,3.9,6.5,4.2,6.5,4.5z"/>
	</g>
</g>
</svg>
