<?xml version="1.0" encoding="utf-8"?>
<!-- Generator: Adobe Illustrator 17.1.0, SVG Export Plug-In . SVG Version: 6.00 Build 0)  -->
<!DOCTYPE svg PUBLIC "-//W3C//DTD SVG 1.1//EN" "http://www.w3.org/Graphics/SVG/1.1/DTD/svg11.dtd">
<svg version="1.1" id="Livello_1" xmlns="http://www.w3.org/2000/svg" xmlns:xlink="http://www.w3.org/1999/xlink" x="0px" y="0px"
	 viewBox="0 0 431 453.1" enable-background="new 0 0 431 453.1" xml:space="preserve">
<path fill="#4B2F40" stroke="#C66F54" stroke-miterlimit="10" d="M215.5,1.8l0.3,1.2c16.6,56.2,84.4,78.2,130.8,42.5l1-0.7l-0.4,1.2
	c-19.6,55.2,22.3,112.9,80.8,111.3l1.2,0l-1,0.7c-48.3,33.1-48.3,104.4,0,137.5l1,0.7l-1.2,0c-58.6-1.6-100.5,56.1-80.8,111.3
	l0.4,1.2l-1-0.7C300.2,372,232.4,394,215.8,450.2l-0.3,1.2l-0.3-1.2C198.6,394,130.7,372,84.3,407.7l-1,0.7l0.4-1.2
	C103.4,352.1,61.5,294.4,2.9,296l-1.2,0l1-0.7C51,262.2,51,190.9,2.7,157.8l-1-0.7l1.2,0c58.6,1.6,100.5-56.1,80.8-111.3l-0.4-1.2
	l1,0.7c46.4,35.7,114.3,13.7,130.8-42.5L215.5,1.8z"/>
<circle fill="#F4EBCF" cx="215.5" cy="226.6" r="137.6"/>
</svg>
