<?xml version="1.0" encoding="utf-8"?>
<!-- Generator: Adobe Illustrator 17.1.0, SVG Export Plug-In . SVG Version: 6.00 Build 0)  -->
<!DOCTYPE svg PUBLIC "-//W3C//DTD SVG 1.1//EN" "http://www.w3.org/Graphics/SVG/1.1/DTD/svg11.dtd">
<svg version="1.1" id="Layer_1" xmlns="http://www.w3.org/2000/svg" xmlns:xlink="http://www.w3.org/1999/xlink" x="0px" y="0px"
	 viewBox="0 0 55.8 66.9" enable-background="new 0 0 55.8 66.9" xml:space="preserve">
<g>
	<path fill="#C96F54" d="M52.1,58.6C42.7,55,40,54,34.4,49.4c-0.5-0.4-0.8-1-0.8-1.7v-2.4c0-0.9,0.5-1.8,1.2-2.3
		c2.1-1.4,6.4-4.7,8.9-9.7c3.3-6.7,4.1-17.6-0.3-24.5C36-2.9,19.8-3,12.2,8.9C7.9,15.7,8.6,26.6,12,33.4c2.5,4.9,6.8,8.3,8.9,9.7
		c0.8,0.5,1.2,1.4,1.2,2.3v2.4c0,0.6-0.3,1.3-0.8,1.7C15.8,54,13.1,55,3.6,58.6C1.4,59.4,0,61.5,0,63.8v1.7c0,0.8,0.6,1.4,1.4,1.4
		c10.6,0,42.4,0,53,0c0.8,0,1.4-0.6,1.4-1.4v-1.7C55.8,61.5,54.3,59.4,52.1,58.6z"/>
	<g>
		<path fill="#4B2F40" d="M40.9,27.7c-1.3,0.5-3.9,1.5-6.3,1.5c-6.2,0-7.4,0-13.5,0c-2.5,0-5-0.9-6.3-1.5c-0.2-0.1-0.5,0.2-0.3,0.4
			c1.1,1.3,2.7,2.4,4.5,3.9c2,1.7,3.5,3.2,4.3,3.2c4.1,0,4.9,0,9.2,0c0.8,0,2.2-1.5,4.3-3.2c1.8-1.5,3.4-2.6,4.5-3.9
			C41.4,27.9,41.2,27.6,40.9,27.7z"/>
		<g>
			<path fill="#4B2F40" d="M40.9,27.7c-1,0.4-2.8,1.1-4.7,1.3l-1.1,1.5C35,30.8,34.7,31,34.4,31h-13c-0.3,0-0.6-0.2-0.8-0.4L19.5,29
				c-1.9-0.3-3.7-0.9-4.7-1.3c-0.2-0.1-0.5,0.2-0.3,0.4c1.1,1.3,2.7,2.4,4.5,3.9c0.4,0.3,0.8,0.7,1.2,1h15.3c0.4-0.3,0.8-0.7,1.2-1
				c1.8-1.5,3.4-2.6,4.5-3.9C41.4,27.9,41.2,27.6,40.9,27.7z"/>
			<path fill="#F6EFD1" d="M21.4,31h13c0.3,0,0.6-0.2,0.8-0.4l1.1-1.5c-0.5,0.1-1.1,0.1-1.6,0.1c-6.2,0-7.4,0-13.5,0
				c-0.5,0-1.1-0.1-1.6-0.1l1.1,1.5C20.8,30.8,21.1,31,21.4,31z"/>
			<path fill="#F6EFD1" d="M23.3,35.1c4.1,0,4.9,0,9.2,0c0.6,0,1.7-1,3.1-2.2H20.2C21.6,34.2,22.7,35.1,23.3,35.1z"/>
		</g>
	</g>
</g>
</svg>
