<?xml version="1.0" encoding="utf-8"?>
<!-- Generator: Adobe Illustrator 17.1.0, SVG Export Plug-In . SVG Version: 6.00 Build 0)  -->
<!DOCTYPE svg PUBLIC "-//W3C//DTD SVG 1.1//EN" "http://www.w3.org/Graphics/SVG/1.1/DTD/svg11.dtd">
<svg version="1.1" id="Layer_1" xmlns="http://www.w3.org/2000/svg" xmlns:xlink="http://www.w3.org/1999/xlink" x="0px" y="0px"
	 viewBox="0 0 30.1 23.9" enable-background="new 0 0 30.1 23.9" xml:space="preserve">
<rect x="8.9" y="10" fill="#4B2F40" width="6.9" height="4.6"/>
<path fill="#F5EDD0" d="M17.9,7.9l-6.8-3.3L5.8,7.8l-4.5,5.6v10.5h23.1l4.8-6.7V8.5L17.9,7.9z M13.7,13.7h-3.4v-3h3.4V13.7z"/>
<path fill="#4B2F40" d="M29.9,8.6l-4.4-5.2c-0.1-0.1-0.1-0.1-0.2-0.2l-5.5-3.1c-0.2-0.1-0.5-0.1-0.8,0L12,3.5c0,0,0,0-0.1,0
	c0,0,0,0-0.1,0c0,0,0,0-0.1,0c0,0,0,0,0,0L5.5,7.2c-0.1,0-0.1,0.1-0.2,0.2l-5.1,6c-0.3,0.3-0.2,0.8,0.1,1c0.1,0.1,0.3,0.2,0.5,0.2
	c0.2,0,0.4-0.1,0.5-0.3l5-6L12.2,5l5.9,3.4l5,6c0.1,0.2,0.3,0.3,0.5,0.3c0.2,0,0.3-0.1,0.5-0.2l5.8-4.8C30.2,9.3,30.2,8.9,29.9,8.6z
	"/>
</svg>
