<?xml version="1.0" encoding="utf-8"?>
<!-- Generator: Adobe Illustrator 17.1.0, SVG Export Plug-In . SVG Version: 6.00 Build 0)  -->
<!DOCTYPE svg PUBLIC "-//W3C//DTD SVG 1.1//EN" "http://www.w3.org/Graphics/SVG/1.1/DTD/svg11.dtd">
<svg version="1.1" id="Layer_1" xmlns="http://www.w3.org/2000/svg" xmlns:xlink="http://www.w3.org/1999/xlink" x="0px" y="0px"
	 viewBox="0 0 56.3 50.9" enable-background="new 0 0 56.3 50.9" xml:space="preserve">
<path fill-rule="evenodd" clip-rule="evenodd" fill="#C66E53" d="M28.8,4.8c-0.4,0.3-0.9,0.3-1.3,0C12-8.6-6.3,8.6,2.1,26.4
	c6.7,14.1,18.8,21.5,23.8,24c1.4,0.7,3.1,0.7,4.5,0c5-2.5,17.1-9.9,23.8-24C62.6,8.6,44.3-8.6,28.8,4.8z"/>
<path fill-rule="evenodd" clip-rule="evenodd" fill="#F6EFD2" d="M6.3,25.1c-0.2-1.1,2.5-1.2,3.2,1.2c0.8,2.6,1.8,4.5,1.2,4.7
	C9.9,31.3,6.7,27.6,6.3,25.1z"/>
<path fill-rule="evenodd" clip-rule="evenodd" fill="#F6EFD2" d="M6,21.9c1,0.3,1.9,0.1,1.6-1.5C6,10.9,12.9,4.6,21.1,6.2
	c1.2,0.2-0.2-1.3-4.3-1.6C8.6,4,4,11.7,4.4,18.1C4.5,20.2,5.3,21.7,6,21.9z"/>
</svg>
