<?xml version="1.0" encoding="utf-8"?>
<!-- Generator: Adobe Illustrator 17.1.0, SVG Export Plug-In . SVG Version: 6.00 Build 0)  -->
<!DOCTYPE svg PUBLIC "-//W3C//DTD SVG 1.1//EN" "http://www.w3.org/Graphics/SVG/1.1/DTD/svg11.dtd">
<svg version="1.1" id="Layer_1" xmlns="http://www.w3.org/2000/svg" xmlns:xlink="http://www.w3.org/1999/xlink" x="0px" y="0px"
	 viewBox="0 0 10.9 8.9" enable-background="new 0 0 10.9 8.9" xml:space="preserve">
<path fill="#F6EFD1" d="M10.9,1c-0.4,0.2-0.8,0.3-1.3,0.4c0.5-0.3,0.8-0.7,1-1.2c-0.4,0.3-0.9,0.4-1.4,0.5C8.7,0.2,7.9-0.1,7,0.1
	C6.2,0.2,5.6,0.9,5.4,1.7c-0.1,0.4-0.1,0.7,0,1.1c-1.9-0.1-3.5-1-4.6-2.3C0.6,0.7,0.5,1.1,0.5,1.5c0,0.8,0.4,1.5,1,1.9
	c-0.4,0-0.7-0.1-1-0.3v0c0,1.1,0.8,2,1.8,2.2C2,5.4,1.8,5.4,1.6,5.4c-0.1,0-0.3,0-0.4,0c0.3,0.9,1.1,1.5,2.1,1.6
	c-0.8,0.6-1.7,1-2.8,1c-0.2,0-0.4,0-0.5,0c1,0.6,2.2,1,3.4,1c4.1,0,6.4-3.4,6.4-6.4c0-0.1,0-0.2,0-0.3C10.2,1.9,10.6,1.5,10.9,1z"/>
</svg>
