<?xml version="1.0" encoding="utf-8"?>
<!-- Generator: Adobe Illustrator 17.1.0, SVG Export Plug-In . SVG Version: 6.00 Build 0)  -->
<!DOCTYPE svg PUBLIC "-//W3C//DTD SVG 1.1//EN" "http://www.w3.org/Graphics/SVG/1.1/DTD/svg11.dtd">
<svg version="1.1" id="Layer_1" xmlns="http://www.w3.org/2000/svg" xmlns:xlink="http://www.w3.org/1999/xlink" x="0px" y="0px"
	 viewBox="0 0 20.1 20.8" enable-background="new 0 0 20.1 20.8" xml:space="preserve">
<line fill="none" stroke="#4B2F40" stroke-width="1.5" stroke-miterlimit="10" x1="1.1" y1="1.5" x2="3.6" y2="1.5"/>
<line fill="none" stroke="#4B2F40" stroke-width="1.5" stroke-miterlimit="10" x1="4.6" y1="1.5" x2="5.6" y2="5.7"/>
<line fill="none" stroke="#4B2F40" stroke-width="1.5" stroke-miterlimit="10" x1="5.6" y1="5.7" x2="12.5" y2="5.7"/>
<line fill="none" stroke="#4B2F40" stroke-width="1.5" stroke-miterlimit="10" x1="12.5" y1="5.7" x2="14.6" y2="1.5"/>
<line fill="none" stroke="#4B2F40" stroke-width="1.5" stroke-miterlimit="10" x1="12.5" y1="5.7" x2="15.5" y2="11.1"/>
<line fill="none" stroke="#4B2F40" stroke-width="1.5" stroke-miterlimit="10" x1="15.5" y1="11.1" x2="12.8" y2="16.7"/>
<line fill="none" stroke="#4B2F40" stroke-width="1.5" stroke-miterlimit="10" x1="12.8" y1="16.7" x2="5.6" y2="16.7"/>
<line fill="none" stroke="#4B2F40" stroke-width="1.5" stroke-miterlimit="10" x1="5.6" y1="16.7" x2="2.7" y2="11.1"/>
<line fill="none" stroke="#4B2F40" stroke-width="1.5" stroke-miterlimit="10" x1="2.7" y1="11.1" x2="5.6" y2="5.7"/>
<line fill="none" stroke="#4B2F40" stroke-width="1.5" stroke-miterlimit="10" x1="5.6" y1="16.7" x2="2.1" y2="20.1"/>
<line fill="none" stroke="#4B2F40" stroke-width="1.5" stroke-miterlimit="10" x1="19.6" y1="13.9" x2="15.5" y2="11.1"/>
<circle fill="#4B2F40" cx="4.6" cy="1.5" r="1.5"/>
<circle fill="#FAFAFA" cx="5.6" cy="5.7" r="2.1"/>
<circle fill="#FAFAFA" cx="5.6" cy="16.7" r="2.1"/>
<circle fill="#4B2F40" cx="12.5" cy="5.7" r="2.1"/>
<circle fill="#FAFAFA" cx="15.5" cy="11.1" r="2.1"/>
<circle fill="#4B2F40" cx="2.7" cy="11.1" r="2.1"/>
<circle fill="#4B2F40" cx="12.8" cy="16.7" r="2.1"/>
<circle fill="#FAFAFA" cx="14.6" cy="1.5" r="1.3"/>
<circle fill="#FAFAFA" cx="1.3" cy="1.4" r="1.3"/>
<circle fill="#4B2F40" cx="2.7" cy="19.5" r="1.3"/>
<circle fill="#4B2F40" cx="18.8" cy="13.3" r="1.3"/>
</svg>
