<?xml version="1.0" encoding="utf-8"?>
<!-- Generator: Adobe Illustrator 17.1.0, SVG Export Plug-In . SVG Version: 6.00 Build 0)  -->
<!DOCTYPE svg PUBLIC "-//W3C//DTD SVG 1.1//EN" "http://www.w3.org/Graphics/SVG/1.1/DTD/svg11.dtd">
<svg version="1.1" id="Layer_2" xmlns="http://www.w3.org/2000/svg" xmlns:xlink="http://www.w3.org/1999/xlink" x="0px" y="0px"
	 viewBox="0 0 18.3 18.3" enable-background="new 0 0 18.3 18.3" xml:space="preserve">
<g>
	<path fill="#00B188" d="M9.2,18.3C4.1,18.3,0,14.2,0,9.2C0,4.1,4.1,0,9.2,0c5.1,0,9.2,4.1,9.2,9.2C18.3,14.2,14.2,18.3,9.2,18.3z
		 M9.2,1.3c-4.3,0-7.9,3.5-7.9,7.9c0,4.3,3.5,7.9,7.9,7.9c4.3,0,7.9-3.5,7.9-7.9C17,4.8,13.5,1.3,9.2,1.3z"/>
	<polygon fill="#00B188" points="10.7,13.3 15.2,13.3 10.4,7.7 14.4,5 11.6,5 7.5,7.7 7.5,5 4.2,5 4.2,13.3 7.5,13.3 7.5,9.6 	"/>
</g>
</svg>
