<?xml version="1.0" encoding="utf-8"?>
<!-- Generator: Adobe Illustrator 17.1.0, SVG Export Plug-In . SVG Version: 6.00 Build 0)  -->
<!DOCTYPE svg PUBLIC "-//W3C//DTD SVG 1.1//EN" "http://www.w3.org/Graphics/SVG/1.1/DTD/svg11.dtd">
<svg version="1.1" id="Layer_1" xmlns="http://www.w3.org/2000/svg" xmlns:xlink="http://www.w3.org/1999/xlink" x="0px" y="0px"
	 viewBox="32.4 0 540 540" enable-background="new 32.4 0 540 540" xml:space="preserve">
<circle fill="#C66E53" cx="302.4" cy="270" r="270"/>
<path fill="#F6EFD1" d="M455.1,202.9H387c-8.5,0-15.3-6.9-15.3-15.3v-68.2c0-12.9-10.4-23.3-23.3-23.3h-90.2
	c-12.9,0-23.3,10.4-23.3,23.3v68.2c0,8.5-6.9,15.3-15.3,15.3h-68.2c-12.9,0-23.3,10.4-23.3,23.3v90.2c0,12.9,10.4,23.3,23.3,23.3
	h68.2c8.5,0,15.3,6.9,15.3,15.3v68.2c0,12.9,10.4,23.3,23.3,23.3h90.2c12.9,0,23.3-10.4,23.3-23.3V355c0-8.5,6.9-15.3,15.3-15.3
	h68.2c12.9,0,23.3-10.4,23.3-23.3v-90.2C478.4,213.3,468,202.9,455.1,202.9z"/>
</svg>
