<?xml version="1.0" encoding="utf-8"?>
<!-- Generator: Adobe Illustrator 17.1.0, SVG Export Plug-In . SVG Version: 6.00 Build 0)  -->
<!DOCTYPE svg PUBLIC "-//W3C//DTD SVG 1.1//EN" "http://www.w3.org/Graphics/SVG/1.1/DTD/svg11.dtd">
<svg version="1.1" id="Layer_1" xmlns="http://www.w3.org/2000/svg" xmlns:xlink="http://www.w3.org/1999/xlink" x="0px" y="0px"
	 viewBox="0 0 18.9 20.2" enable-background="new 0 0 18.9 20.2" xml:space="preserve">
<rect x="3.1" y="-0.9" transform="matrix(0.636 0.7717 -0.7717 0.636 3.69 -1.6483)" fill="#C66F51" width="1" height="8.1"/>
<rect x="4.3" y="-0.2" transform="matrix(0.6495 0.7603 -0.7603 0.6495 5.1379 -2.0223)" fill="#C66F51" width="1" height="9.4"/>
<rect x="5.5" y="2.3" transform="matrix(0.6495 0.7603 -0.7603 0.6495 6.6823 -2.4719)" fill="#C66F51" width="1" height="7.5"/>
<rect x="13.1" y="11.1" transform="matrix(0.636 0.7717 -0.7717 0.636 16.3417 -5.1208)" fill="#C66F51" width="1" height="7.3"/>
<rect x="14.2" y="12" transform="matrix(0.6495 0.7603 -0.7603 0.6495 17.5278 -5.4379)" fill="#C66F51" width="1" height="8.6"/>
<rect x="15.6" y="14.3" transform="matrix(0.6495 0.7603 -0.7603 0.6495 18.9933 -6.0678)" fill="#C66F51" width="1" height="6.5"/>
<path fill="#00B188" d="M4.5,16.5L15.6,5.1c1.2,1.4,2,3.3,2,5.3c0,0.2,0,0.4,0,0.5c0.4,0.1,0.8,0.4,1.2,0.9c0.1-0.5,0.1-0.9,0.1-1.4
	c0-4.8-3.7-8.8-8.4-9.2c0.2,0.5,0.3,1,0.3,1.3c1.5,0.2,2.8,0.8,3.9,1.7L3.6,15.6c-1.2-1.4-2-3.2-2-5.3c0-0.2,0-0.4,0-0.6
	C1.1,9.6,0.7,9.4,0.4,9.3c0,0.4-0.1,0.7-0.1,1.1c0,5.1,4.1,9.2,9.1,9.3c-0.4-0.4-0.6-0.8-0.7-1.3C7.1,18.1,5.7,17.5,4.5,16.5"/>
<path fill="#C66F51" d="M7.7,8c0-0.1,0.1-0.1,0.1-0.2C8.7,7.5,9.5,7.2,10.3,7l1.1-1.1c-0.9,0-1.8,0.3-2.8,0.6C8.8,6.1,8.9,5.7,9,5.4
	c0.5-1.7,0.4-3.2-0.3-4.2C8.1,0.4,7.3,0,6.2,0h0C5.9,0,5.7,0.2,5.7,0.5C5.7,0.7,5.9,1,6.2,1C7,1,7.6,1.2,7.9,1.7
	c0.5,0.7,0.6,2,0.2,3.3c-0.2,0.6-0.5,1.3-1,2C6.3,7.4,5.4,7.7,4.7,7.8C3.3,8,2.1,7.7,1.5,7.1C1,6.6,0.9,6,1,5.2
	c0-0.3-0.1-0.5-0.4-0.6C0.3,4.6,0.1,4.8,0.1,5c-0.2,1.1,0.1,2,0.7,2.7c0.9,0.9,2.4,1.2,4.1,1c0.5-0.1,1-0.2,1.5-0.4
	c-0.8,1.3-1.4,2.7-1.2,4l1-1.1C6.4,10.3,7.1,9.1,7.7,8"/>
<path fill="#C66F51" d="M18.2,12.9c-0.4-0.7-1.8-2.1-5.2-0.9c1-1.6,1.5-2.8,1.3-3.9l-1.1,1.1c-0.2,0.8-0.8,1.8-1.8,3.4
	c-0.9,0.4-1.6,0.6-2.2,0.8l-1.2,1.2c0.7-0.1,1.6-0.3,2.6-0.7c-1.5,3-0.4,4.5,0.2,5c1.2,1.1,2.6,1.2,3.2,1.2c0.1,0,0.2,0,0.3,0
	c0.3,0,0.5-0.3,0.4-0.5c0-0.3-0.3-0.5-0.5-0.4c0,0-1.5,0.1-2.7-0.9c-1-0.9-0.8-2.6,0.5-4.7c0,0,0.1-0.1,0.1-0.1
	c0.2-0.1,0.3-0.1,0.5-0.2c2.3-1,4-0.9,4.7,0.2c0.8,1.3,0.5,2.8,0.5,2.8c-0.1,0.3,0.1,0.5,0.3,0.6c0,0,0.1,0,0.1,0
	c0.2,0,0.4-0.1,0.5-0.4C18.8,16.5,19.3,14.6,18.2,12.9"/>
</svg>
