<?xml version="1.0" encoding="utf-8"?>
<!-- Generator: Adobe Illustrator 17.1.0, SVG Export Plug-In . SVG Version: 6.00 Build 0)  -->
<!DOCTYPE svg PUBLIC "-//W3C//DTD SVG 1.1//EN" "http://www.w3.org/Graphics/SVG/1.1/DTD/svg11.dtd">
<svg version="1.1" id="Layer_1" xmlns="http://www.w3.org/2000/svg" xmlns:xlink="http://www.w3.org/1999/xlink" x="0px" y="0px"
	 viewBox="0 0 52.8 60" enable-background="new 0 0 52.8 60" xml:space="preserve">
<path fill="#C66E53" d="M11.3,33.7h32.9c4.7,0,8.6-3.8,8.6-8.6v-0.2c0-4.7-3.8-8.6-8.6-8.6H11.3c-0.7,0-1.3-0.6-1.3-1.3v0
	c0-0.7,0.6-1.3,1.3-1.3h17.2c2.7,0,4.9-2.2,4.9-4.9c0,0,0,0,0-0.1c0,0,0,0,0,0V8.6c0-0.2,0-0.4-0.1-0.6C33.1,5.1,31,4,30.2,2.5
	C29.4,1,30.2,0,28.5,0c-2,0-0.9,1.1-1.8,2.3c-0.6,0.8-1.1,1.4-5.1,1.4l0,0H8.6C3.8,3.7,0,7.5,0,12.2v2.9c0,4.7,3.8,8.6,8.6,8.6h32.9
	c0.7,0,1.3,0.6,1.3,1.3v0c0,0.7-0.6,1.3-1.3,1.3H8.6c-4.7,0-8.6,3.8-8.6,8.6v0.2c0,4.7,3.8,8.6,8.6,8.6h32.9c0.7,0,1.3,0.6,1.3,1.3
	v0c0,0.7-0.6,1.3-1.3,1.3H24.2c-2.7,0-5,2.2-5,5v0.1c0,0.3,0,0.5,0.1,0.7c0.4,2.8,2.4,3.9,3.2,5.4c0.8,1.6,0.1,2.5,1.8,2.5
	c2,0,0.9-1.1,1.8-2.3c0.6-0.8,1.1-1.4,5.1-1.4h13.1c4.7,0,8.6-3.8,8.6-8.6v-2.9c0-4.7-3.8-8.6-8.6-8.6H11.3c-0.7,0-1.3-0.6-1.3-1.3
	v0C10,34.3,10.6,33.7,11.3,33.7z"/>
</svg>
