<?xml version="1.0" encoding="utf-8"?>
<!-- Generator: Adobe Illustrator 17.1.0, SVG Export Plug-In . SVG Version: 6.00 Build 0)  -->
<!DOCTYPE svg PUBLIC "-//W3C//DTD SVG 1.1//EN" "http://www.w3.org/Graphics/SVG/1.1/DTD/svg11.dtd">
<svg version="1.1" id="Layer_1" xmlns="http://www.w3.org/2000/svg" xmlns:xlink="http://www.w3.org/1999/xlink" x="0px" y="0px"
	 viewBox="0 0 21.7 20.9" enable-background="new 0 0 21.7 20.9" xml:space="preserve">
<path fill="#00B188" d="M6.9,2.9c0.3,0.1,1,1,1,2.3c0,1.3,0,1.3,0.2,1.3c0.3,0.1,1.2-0.4,1.3-2.3C9.5,2.3,6.8-0.6,4,0.1
	C3.6,0.2,3.8,0.4,4,1.3c0.2,1.2,0.3,3.4,1.4,4.5c1.2,1,1.9,0.6,2-0.8C7.6,3.6,6.8,2.9,6.9,2.9"/>
<path fill="#00B188" d="M1.4,8.4c0.1,0.3,0.8,0.4,1.5,1.2c0.6,0.7,1.6,1.6,2.8,1.5c1.2-0.1,1.6-0.9,1.1-2.1s-2-1.9-3.2-1.8
	C2.5,7.2,1.2,8,1.4,8.4"/>
<path fill="#00B188" d="M10,7.7C10,8,10.5,7.5,11.6,7c1.1-0.6,3.1-1.2,3.6-0.8c0.3,0.3-1,0-2.9,1.2c-2,1.2-4.2,3-4.2,5.4
	c0,2.4,1.5,3.7,2.3,3.9c0.3,0.1-1-1.2-1.3-2.2C8.8,13.4,8.7,11,11,10.6c1.6-0.3,3.9,1.5,6.9-1.3c1.1-1,2.7-3.7,3.5-4.3
	c0.8-0.6,0.3-1-0.3-1.4c-0.7-0.4-4.1-1.7-7.1-0.1C11,5.1,10,7.1,10,7.7"/>
<path fill="#C66F51" d="M10.5,14.2c0,0,0-0.1,0-0.2c0-0.1,0-0.1,0.1-0.2c0,0,0.1-0.1,0.1-0.1c0,0,0.1-0.1,0.1-0.1
	c0.1-0.1,0.2-0.2,0.3-0.2c0.1-0.1,0.2-0.1,0.3-0.2c0.1-0.1,0.3-0.1,0.4-0.1c0.1,0,0.3,0,0.4,0c0.1,0,0.3,0,0.4,0
	c0.1,0,0.3,0.1,0.4,0.1c0.1,0.1,0.2,0.1,0.3,0.2c0.1,0.1,0.2,0.2,0.3,0.2c0.1,0.1,0.1,0.2,0.2,0.2c0,0.1,0.1,0.1,0.1,0.2
	c0,0.1,0,0.2,0,0.2c0,0.1-0.1,0.2-0.2,0.2c0,0-0.1,0-0.1,0l0,0c0,0-0.1,0-0.1-0.1c-0.1,0-0.2-0.1-0.4-0.1c-0.1,0-0.1,0-0.2-0.1
	c-0.1,0-0.2,0-0.2,0c-0.2,0-0.3,0-0.5,0c-0.1,0-0.2,0-0.3,0c-0.1,0-0.2,0-0.3,0c-0.1,0-0.2,0-0.2,0c-0.1,0-0.2,0-0.2,0.1
	c-0.1,0-0.1,0-0.2,0.1c-0.1,0-0.1,0-0.2,0.1c-0.1,0-0.2,0.1-0.2,0.1c-0.1,0-0.2,0-0.2-0.1C10.5,14.3,10.5,14.3,10.5,14.2L10.5,14.2z
	"/>
<path fill="#C66F51" d="M15.1,16.1c0,0,0-0.1,0-0.2c0-0.1,0-0.1,0.1-0.2c0,0,0.1-0.1,0.1-0.1c0,0,0.1-0.1,0.1-0.1
	c0.1-0.1,0.2-0.2,0.3-0.3c0.1-0.1,0.2-0.2,0.4-0.2c0.1-0.1,0.3-0.1,0.4-0.1c0.1,0,0.3,0,0.5-0.1c0.2,0,0.3,0,0.5,0
	c0.2,0,0.3,0.1,0.4,0.1c0.1,0.1,0.3,0.1,0.4,0.2c0.1,0.1,0.2,0.2,0.3,0.3c0.1,0.1,0.1,0.2,0.2,0.3c0,0.1,0.1,0.2,0.1,0.2
	c0,0.1,0.1,0.2,0.1,0.2c0,0.1-0.1,0.2-0.2,0.2c0,0-0.1,0-0.1,0l0,0c0,0-0.1,0-0.2-0.1c-0.1,0-0.2-0.1-0.4-0.1c-0.1,0-0.2,0-0.2-0.1
	c-0.1,0-0.2,0-0.3,0c-0.2,0-0.4,0-0.6,0c-0.1,0-0.2,0-0.3,0c-0.1,0-0.2,0-0.3,0c-0.1,0-0.2,0-0.3,0c-0.1,0-0.2,0-0.2,0.1
	c-0.1,0-0.1,0-0.2,0.1c-0.1,0-0.1,0-0.2,0.1c-0.1,0.1-0.2,0.1-0.2,0.1c-0.1,0-0.2,0-0.3-0.1C15.1,16.2,15.1,16.2,15.1,16.1
	L15.1,16.1z"/>
<path fill="#C66F51" d="M13.5,14.7c0,0,0-0.1,0-0.2c0-0.1,0-0.1,0.1-0.2c0,0,0.1-0.1,0.1-0.1c0,0,0.1-0.1,0.1-0.1
	c0.1-0.1,0.2-0.2,0.3-0.2c0.1-0.1,0.2-0.2,0.3-0.2c0.1-0.1,0.3-0.1,0.4-0.1c0.1,0,0.3,0,0.4-0.1c0.1,0,0.3,0,0.4,0
	c0.1,0,0.3,0.1,0.4,0.1c0.1,0.1,0.2,0.1,0.3,0.2c0.1,0.1,0.2,0.2,0.3,0.2c0.1,0.1,0.1,0.2,0.2,0.2c0,0.1,0.1,0.1,0.1,0.2
	c0,0.1,0.1,0.2,0.1,0.2c0,0.1-0.1,0.2-0.2,0.2c0,0-0.1,0-0.1,0l0,0c0,0-0.1,0-0.2-0.1c-0.1,0-0.2-0.1-0.4-0.1c-0.1,0-0.1,0-0.2-0.1
	c-0.1,0-0.2,0-0.2,0c-0.2,0-0.4,0-0.5,0c-0.1,0-0.2,0-0.3,0c-0.1,0-0.2,0-0.3,0c-0.1,0-0.2,0-0.3,0c-0.1,0-0.2,0-0.2,0.1
	c-0.1,0-0.1,0-0.2,0.1c-0.1,0-0.1,0-0.2,0.1c-0.1,0-0.2,0.1-0.2,0.1c-0.1,0-0.2,0-0.2-0.1C13.5,14.8,13.5,14.8,13.5,14.7L13.5,14.7z
	"/>
<path fill="#C66F51" d="M16.5,14.9c0,0,0-0.1,0-0.2c0,0,0-0.1,0.1-0.2c0,0,0-0.1,0.1-0.1c0,0,0.1-0.1,0.1-0.1
	c0.1-0.1,0.1-0.1,0.2-0.2c0.1-0.1,0.2-0.1,0.3-0.2c0.1,0,0.2-0.1,0.4-0.1c0.1,0,0.3,0,0.4,0c0.1,0,0.3,0,0.4,0
	c0.1,0,0.2,0.1,0.4,0.1c0.1,0.1,0.2,0.1,0.3,0.2c0.1,0.1,0.2,0.1,0.2,0.2c0.1,0.1,0.1,0.1,0.1,0.2c0,0.1,0.1,0.1,0.1,0.2
	c0,0.1,0,0.2,0,0.2c0,0.1,0,0.2-0.1,0.2c0,0-0.1,0-0.1,0l0,0c0,0-0.1,0-0.1-0.1c-0.1,0-0.2-0.1-0.3-0.1c-0.1,0-0.1,0-0.2-0.1
	c-0.1,0-0.1,0-0.2,0c-0.1,0-0.3,0-0.5,0c-0.1,0-0.2,0-0.2,0c-0.1,0-0.2,0-0.2,0c-0.1,0-0.1,0-0.2,0c-0.1,0-0.1,0-0.2,0.1
	c-0.1,0-0.1,0-0.2,0c0,0-0.1,0-0.1,0.1c-0.1,0-0.1,0.1-0.1,0.1C16.7,15.1,16.6,15.1,16.5,14.9C16.5,15,16.5,14.9,16.5,14.9
	L16.5,14.9z"/>
<path fill="#C66F51" d="M13.8,16.6c0,0,0-0.1,0-0.2c0,0,0-0.1,0.1-0.2c0,0,0-0.1,0.1-0.1c0,0,0.1-0.1,0.1-0.1
	c0.1-0.1,0.1-0.1,0.2-0.2c0.1-0.1,0.2-0.1,0.3-0.2c0.1,0,0.2-0.1,0.4-0.1c0.1,0,0.3,0,0.4,0c0.1,0,0.3,0,0.4,0
	c0.1,0,0.3,0.1,0.4,0.1c0.1,0.1,0.2,0.1,0.3,0.2c0.1,0.1,0.2,0.1,0.2,0.2c0.1,0.1,0.1,0.1,0.2,0.2c0,0.1,0.1,0.1,0.1,0.2
	c0,0.1,0,0.2,0,0.2c0,0.1,0,0.2-0.1,0.2c0,0-0.1,0-0.1,0l0,0c0,0-0.1,0-0.1-0.1c-0.1,0-0.2-0.1-0.3-0.1c-0.1,0-0.1,0-0.2-0.1
	c-0.1,0-0.1,0-0.2,0c-0.2,0-0.3,0-0.5,0c-0.1,0-0.2,0-0.2,0c-0.1,0-0.2,0-0.2,0c-0.1,0-0.2,0-0.2,0c-0.1,0-0.1,0-0.2,0.1
	c-0.1,0-0.1,0-0.2,0c0,0-0.1,0-0.1,0.1c-0.1,0-0.1,0.1-0.1,0.1C14,16.8,13.9,16.8,13.8,16.6C13.8,16.6,13.8,16.6,13.8,16.6
	L13.8,16.6z"/>
<path fill="#C66F51" d="M11.4,18.2c0,0,0-0.1,0-0.2c0,0,0-0.1,0.1-0.2c0,0,0-0.1,0.1-0.1c0,0,0.1-0.1,0.1-0.1
	c0.1-0.1,0.1-0.1,0.2-0.2c0.1-0.1,0.2-0.1,0.3-0.2c0.1,0,0.2-0.1,0.4-0.1c0.1,0,0.3,0,0.4,0c0.1,0,0.3,0,0.4,0
	c0.1,0,0.3,0.1,0.4,0.1c0.1,0.1,0.2,0.1,0.3,0.2c0.1,0.1,0.2,0.1,0.2,0.2c0.1,0.1,0.1,0.1,0.2,0.2c0,0.1,0.1,0.1,0.1,0.2
	c0,0.1,0,0.2,0,0.2c0,0.1,0,0.2-0.1,0.2c0,0-0.1,0-0.1,0l0,0c0,0-0.1,0-0.1-0.1c-0.1,0-0.2-0.1-0.3-0.1c-0.1,0-0.1,0-0.2-0.1
	c-0.1,0-0.2,0-0.2,0c-0.2,0-0.3,0-0.5,0c-0.1,0-0.2,0-0.2,0c-0.1,0-0.2,0-0.2,0c-0.1,0-0.2,0-0.2,0c-0.1,0-0.1,0-0.2,0.1
	c-0.1,0-0.1,0-0.2,0.1c0,0-0.1,0-0.1,0.1c-0.1,0-0.1,0.1-0.1,0.1C11.5,18.4,11.4,18.4,11.4,18.2C11.4,18.3,11.4,18.2,11.4,18.2
	L11.4,18.2z"/>
<path fill="#C66F51" d="M16.1,18C16.1,18,16.1,18,16.1,18c0-0.1,0-0.1,0.1-0.2c0,0,0,0,0-0.1c0,0,0,0,0-0.1c0,0,0.1-0.1,0.1-0.1
	c0,0,0.1-0.1,0.2-0.1c0.1,0,0.1-0.1,0.2-0.1c0.1,0,0.1,0,0.2,0c0.1,0,0.1,0,0.2,0c0.1,0,0.1,0,0.2,0.1c0.1,0,0.1,0.1,0.2,0.1
	c0.1,0,0.1,0.1,0.1,0.1c0,0,0.1,0.1,0.1,0.1c0,0,0,0.1,0,0.1c0,0.1,0,0.1,0,0.1c0,0,0,0.1-0.1,0.1c0,0,0,0,0,0l0,0c0,0,0,0-0.1,0
	c0,0-0.1,0-0.2-0.1c0,0-0.1,0-0.1,0c0,0-0.1,0-0.1,0c-0.1,0-0.2,0-0.3,0c0,0-0.1,0-0.1,0c0,0-0.1,0-0.1,0c0,0-0.1,0-0.1,0
	c0,0-0.1,0-0.1,0c0,0-0.1,0-0.1,0c0,0-0.1,0-0.1,0c0,0-0.1,0-0.1,0C16.2,18.1,16.1,18.1,16.1,18C16.1,18,16.1,18,16.1,18L16.1,18z"
	/>
<path fill="#C66F51" d="M15.3,19.5C15.3,19.5,15.3,19.5,15.3,19.5c0-0.1,0-0.1,0-0.1c0,0,0,0,0,0c0,0,0,0,0,0c0,0,0-0.1,0.1-0.1
	c0,0,0.1-0.1,0.1-0.1c0,0,0.1,0,0.1,0c0,0,0.1,0,0.1,0c0,0,0.1,0,0.1,0c0,0,0.1,0,0.1,0c0,0,0.1,0,0.1,0.1c0,0,0.1,0.1,0.1,0.1
	c0,0,0,0.1,0.1,0.1c0,0,0,0.1,0,0.1c0,0,0,0.1,0,0.1c0,0,0,0.1,0,0.1c0,0,0,0,0,0l0,0c0,0,0,0,0,0c0,0-0.1,0-0.1,0c0,0,0,0-0.1,0
	c0,0-0.1,0-0.1,0c-0.1,0-0.1,0-0.2,0c0,0-0.1,0-0.1,0c0,0-0.1,0-0.1,0c0,0-0.1,0-0.1,0c0,0,0,0-0.1,0c0,0,0,0-0.1,0c0,0,0,0-0.1,0
	C15.4,19.6,15.4,19.6,15.3,19.5C15.4,19.6,15.3,19.6,15.3,19.5C15.3,19.5,15.3,19.5,15.3,19.5L15.3,19.5z"/>
<path fill="#C66F51" d="M10.1,20.8C10.1,20.8,10.1,20.8,10.1,20.8c0-0.1,0-0.1,0.1-0.2c0,0,0,0,0-0.1c0,0,0,0,0,0
	c0,0,0.1-0.1,0.1-0.1s0.1-0.1,0.2-0.1c0.1,0,0.1,0,0.2-0.1c0.1,0,0.1,0,0.2,0c0.1,0,0.1,0,0.2,0c0.1,0,0.1,0,0.2,0.1
	c0.1,0,0.1,0,0.2,0.1c0,0,0.1,0.1,0.1,0.1c0,0,0.1,0.1,0.1,0.1c0,0,0,0.1,0,0.1c0,0,0,0.1,0,0.1c0,0,0,0.1-0.1,0.1c0,0,0,0,0,0l0,0
	c0,0,0,0-0.1,0c0,0-0.1,0-0.2-0.1c0,0-0.1,0-0.1,0c0,0-0.1,0-0.1,0c-0.1,0-0.2,0-0.2,0c0,0-0.1,0-0.1,0c0,0-0.1,0-0.1,0
	c0,0-0.1,0-0.1,0c0,0-0.1,0-0.1,0c0,0-0.1,0-0.1,0c0,0-0.1,0-0.1,0c0,0-0.1,0-0.1,0C10.2,20.9,10.1,20.9,10.1,20.8
	C10.1,20.8,10.1,20.8,10.1,20.8L10.1,20.8z"/>
<path fill="#C66F51" d="M2.5,18.2C2.5,18.2,2.5,18.2,2.5,18.2c0-0.1,0-0.1,0.1-0.2c0,0,0,0,0-0.1c0,0,0,0,0,0c0,0,0.1-0.1,0.1-0.1
	s0.1-0.1,0.2-0.1c0.1,0,0.1,0,0.2-0.1c0.1,0,0.1,0,0.2,0c0.1,0,0.1,0,0.2,0c0.1,0,0.1,0,0.2,0.1c0.1,0,0.1,0,0.2,0.1
	c0,0,0.1,0.1,0.1,0.1C4,18,4,18,4,18c0,0,0,0.1,0,0.1c0,0,0,0.1,0,0.1c0,0,0,0.1-0.1,0.1c0,0,0,0,0,0l0,0c0,0,0,0-0.1,0
	c0,0-0.1,0-0.2-0.1c0,0-0.1,0-0.1,0c0,0-0.1,0-0.1,0c-0.1,0-0.2,0-0.2,0c0,0-0.1,0-0.1,0c0,0-0.1,0-0.1,0c0,0-0.1,0-0.1,0
	c0,0-0.1,0-0.1,0c0,0-0.1,0-0.1,0c0,0-0.1,0-0.1,0c0,0-0.1,0-0.1,0C2.6,18.3,2.5,18.3,2.5,18.2C2.5,18.2,2.5,18.2,2.5,18.2L2.5,18.2
	z"/>
<path fill="#C66F51" d="M5.1,20.1C5.1,20.1,5.1,20.1,5.1,20.1c0-0.1,0-0.1,0-0.2c0,0,0,0,0-0.1c0,0,0,0,0,0c0,0,0.1-0.1,0.1-0.1
	c0,0,0.1-0.1,0.1-0.1c0,0,0.1,0,0.1-0.1c0,0,0.1,0,0.1,0c0,0,0.1,0,0.1,0c0,0,0.1,0,0.1,0.1c0,0,0.1,0,0.1,0.1c0,0,0.1,0.1,0.1,0.1
	c0,0,0,0.1,0.1,0.1c0,0,0,0.1,0,0.1c0,0,0,0.1,0,0.1c0,0,0,0.1-0.1,0.1c0,0,0,0,0,0l0,0c0,0,0,0,0,0c0,0-0.1,0-0.1-0.1
	c0,0,0,0-0.1,0c0,0-0.1,0-0.1,0c-0.1,0-0.1,0-0.2,0c0,0-0.1,0-0.1,0c0,0-0.1,0-0.1,0c0,0-0.1,0-0.1,0c0,0-0.1,0-0.1,0c0,0,0,0-0.1,0
	c0,0,0,0-0.1,0C5.2,20.2,5.2,20.2,5.1,20.1C5.1,20.2,5.1,20.2,5.1,20.1C5.1,20.2,5.1,20.2,5.1,20.1L5.1,20.1z"/>
<path fill="#C66F51" d="M7.6,19.9c0.2,0.2,0.6-0.5,2.5-0.7c1.9-0.2,2.7,0.1,3.2,0.4c0.5,0.3,0.3-1.1-1.2-1.5l-0.2-0.4
	c0,0-2-0.4-3.7,1.4C7.5,19.7,7.5,19.8,7.6,19.9"/>
<path fill="#C66F51" d="M5.6,18.6c0.2,0.2,1-0.6,2.4-0.3c1.4,0.3,1.8,0.6,2.2,0.2c0.5-0.3,1-0.6,0.9-0.7c0-0.1-0.8-0.6-2.5-0.7
	C6.9,17,5.3,18.3,5.6,18.6"/>
<path fill="#C66F51" d="M0,14.8c-0.1,0.2,1-0.5,2.1,0.4c0,0-1.1,0.5-1.4,1.5c-0.1,0.2,1-0.6,2.4-0.4c1.5,0.2,1.9,0.7,2.1,0.7
	c0.2,0,1-1,2.7-1c0,0-1-1.3-2.6-0.2c0,0-1-0.7-2.3-0.7c-1.3,0-0.1,0-0.1,0s1-0.9,2.5-0.5c0,0,0.7-0.7,1.6-0.5c0,0-1.6-2-3.4-0.4
	C3.6,13.8,1.3,12.7,0,14.8"/>
<path fill="#C66F51" d="M17,16.7c0.2-0.1,1.1-0.5,2.1-0.2c1,0.3-0.3-1.1-0.9-1.4c-0.6-0.3,0.3-0.4,0.9-0.2c0.6,0.2-0.2-0.6-0.4-0.6
	c-0.2,0-0.6-0.1-0.6-0.1c0,0-0.1,0-0.2,0.1c-0.1,0-0.6,0.1-0.6,0.1c0,0,0,1-0.1,1c-0.1,0.1-0.8,0.3-0.8,0.4
	C16.3,15.8,17,16.7,17,16.7"/>
<path fill="#C66F51" d="M12.8,18.4c-0.2-0.1-0.3-0.3,0.1-0.3c0.4,0,0.3-0.2,0.2-0.2c-0.1,0-0.4,0-0.6,0c-0.3,0-0.4,0-0.5,0.1
	c-0.1,0.1-0.4,0.6-0.3,0.6C11.9,18.6,12.8,18.4,12.8,18.4"/>
</svg>
