<?xml version="1.0" encoding="utf-8"?>
<!-- Generator: Adobe Illustrator 17.1.0, SVG Export Plug-In . SVG Version: 6.00 Build 0)  -->
<!DOCTYPE svg PUBLIC "-//W3C//DTD SVG 1.1//EN" "http://www.w3.org/Graphics/SVG/1.1/DTD/svg11.dtd">
<svg version="1.1" id="Layer_1" xmlns="http://www.w3.org/2000/svg" xmlns:xlink="http://www.w3.org/1999/xlink" x="0px" y="0px"
	 viewBox="0 0 18.8 20.7" enable-background="new 0 0 18.8 20.7" xml:space="preserve">
<g>
	<g>
		<path fill="#C26B11" d="M5.7,9.4C5.7,9.4,5.7,9.4,5.7,9.4c0-2.1,1.7-3.8,3.7-3.8c2.1,0,3.7,1.7,3.7,3.7c0,0,0,0,0,0.1
			C14.6,9,16.5,8.7,18.3,9c0.1,0,0.2,0,0.3-0.1c0.1-0.1,0.1-0.2,0.1-0.3c0-0.4-0.1-0.9-0.2-1.3c-0.8,0-2.5,0-3,0
			c-0.4,0-0.7-0.2-0.7-0.6c0-0.8,1.2-1.4,2.1-0.8c0.1-0.5,0.5-0.8,0.8-0.9C16.1,2,13,0,9.4,0C6.1,0,3.2,1.7,1.5,4.3
			c0.2,0.1,0.4,0.3,0.5,0.5c0.2-0.1,0.4-0.1,0.6-0.1c0.9,0,1.7,0.7,1.7,1.7c0,0.5-0.2,0.8-0.7,0.8c-0.4,0-2.1,0-3.3,0
			c-0.1,0.5-0.2,1-0.2,1.5c0,0.1,0,0.2,0.1,0.3S0.4,9,0.5,9C2.3,8.7,4.3,9,5.7,9.4z M7.4,2.7c0.3-0.4,0.7-0.5,1.2-0.5
			c0.5,0,0.9,0.2,1.2,0.6c0.2-0.7,0.8-1.2,1.6-1.2c0.9,0,1.7,0.7,1.7,1.7c0,0.5-0.2,0.8-0.7,0.8c-0.5,0-3.5,0-4.2,0
			C7.2,4.1,6.8,3.4,7.4,2.7z"/>
	</g>
	<g>
		<path fill="#00B188" d="M9.6,13.2c0-0.3,0.2-0.5,0.4-0.7c0.2-0.1,0.5-0.1,0.8,0c0.9,0.6,2.3,1.7,3.2,3.2c0.5,0.7,0.3,1.7-0.3,2.2
			c-0.4,0.3-0.8,0.6-1.3,0.9c-0.8,0.5-1.8,1-2.4,1.7c-0.1,0.1-0.2,0.1-0.3,0.1c-0.1,0-0.2-0.1-0.2-0.2V13.2z"/>
		<path fill="#00B188" d="M11.4,11.3c-0.2,0-0.4,0.2-0.4,0.4c0,0.2,0,0.4,0.2,0.5c1.1,0.7,2.8,2,3.8,4c0.1,0.1,0.2,0.2,0.3,0.2
			c0.1,0,0.3,0,0.4-0.1c0.4-0.3,1-0.9,1.5-1.7c0.4-0.6,0.3-1.4-0.3-1.8C15.9,11.9,14.1,10.9,11.4,11.3z"/>
		<path fill="#00B188" d="M12.6,10.2c-0.1,0-0.2,0.1-0.1,0.3c0,0.1,0.1,0.2,0.2,0.2c1.1,0,3.1,0.3,4.8,1.5c0.1,0.1,0.3,0.1,0.5,0.1
			s0.3-0.2,0.4-0.4c0-0.1,0.1-0.2,0.1-0.3c0.1-0.3,0.1-0.5,0-0.8c-0.1-0.2-0.3-0.4-0.6-0.5C16.6,10,14.5,9.5,12.6,10.2z"/>
		<path fill="#00B188" d="M9,13.2c0-0.3-0.2-0.5-0.4-0.7c-0.2-0.1-0.5-0.1-0.8,0c-0.9,0.6-2.3,1.7-3.2,3.2c-0.5,0.7-0.3,1.7,0.3,2.2
			c0.4,0.3,0.8,0.6,1.3,0.9c0.8,0.5,1.8,1,2.4,1.7c0.1,0.1,0.2,0.1,0.3,0.1C9,20.7,9,20.6,9,20.5V13.2z"/>
		<path fill="#00B188" d="M7.2,11.3c0.2,0,0.4,0.2,0.4,0.4c0,0.2,0,0.4-0.2,0.5c-1.1,0.7-2.8,2-3.8,4c-0.1,0.1-0.2,0.2-0.3,0.2
			c-0.1,0-0.3,0-0.4-0.1c-0.4-0.3-1-0.9-1.5-1.7C1,14,1.1,13.2,1.7,12.7C2.7,11.9,4.5,10.9,7.2,11.3z"/>
		<path fill="#00B188" d="M6,10.2c0.1,0,0.2,0.1,0.1,0.3c0,0.1-0.1,0.2-0.2,0.2c-1.1,0-3.1,0.3-4.8,1.5c-0.1,0.1-0.3,0.1-0.5,0.1
			S0.3,12.1,0.2,12c0-0.1-0.1-0.2-0.1-0.3c-0.1-0.3-0.1-0.5,0-0.8c0.1-0.2,0.3-0.4,0.6-0.5C1.9,10,4.1,9.5,6,10.2z"/>
	</g>
</g>
</svg>
