<?xml version="1.0" encoding="utf-8"?>
<!-- Generator: Adobe Illustrator 17.1.0, SVG Export Plug-In . SVG Version: 6.00 Build 0)  -->
<!DOCTYPE svg PUBLIC "-//W3C//DTD SVG 1.1//EN" "http://www.w3.org/Graphics/SVG/1.1/DTD/svg11.dtd">
<svg version="1.1" id="Layer_1" xmlns="http://www.w3.org/2000/svg" xmlns:xlink="http://www.w3.org/1999/xlink" x="0px" y="0px"
	 viewBox="0 0 51.6 61.9" enable-background="new 0 0 51.6 61.9" xml:space="preserve">
<path fill-rule="evenodd" clip-rule="evenodd" fill="#C66E53" d="M0,61.9h51.6c0,0,0-2.1,0-4.2c0-2.1-4.1-4.1-9-4.7
	c-4.9-0.6-12.2-5.3-12.2-7.2s0-3.5,0-4.8c0-1.3,1.6-2.6,4.5-5.5c2.9-2.9,7.7-9.4,7.7-16.6S39.1,0,24.9,0S1.3,12.4,5.7,30.1
	c1.6,6.5,3.4,9.3,4.4,10.5c0.4,0.5,1,0.9,1.7,1c1.1,0.2,3.2,0.6,4.6,0.9c2,0.4,1.3,3-1.3,4.9s-6.6,3.5-9.1,4.6
	C1.7,53.8,0,54.8,0,61.9z"/>
<path fill-rule="evenodd" clip-rule="evenodd" fill="#C66E53" d="M11.4,45.6c-1.2,0-3,1.8-3,3v0v0c0-1.2-1.8-3-3-3h0h0
	c1.2,0,3-1.8,3-3v0v0C8.5,43.9,10.2,45.6,11.4,45.6L11.4,45.6L11.4,45.6z"/>
<path fill-rule="evenodd" clip-rule="evenodd" fill="#C66E53" d="M45.4,36.1c-1.2,0-3,1.8-3,3v0v0c0-1.2-1.8-3-3-3h0h0
	c1.2,0,3-1.8,3-3v0v0C42.5,34.4,44.2,36.1,45.4,36.1L45.4,36.1L45.4,36.1z"/>
<path fill-rule="evenodd" clip-rule="evenodd" fill="#F6EED0" d="M38.4,25.5c-1.8,0-4.4,2.6-4.4,4.4v0v0c0-1.8-2.6-4.4-4.4-4.4h0h0
	c1.8,0,4.4-2.6,4.4-4.4v0v0C34,22.9,36.6,25.5,38.4,25.5L38.4,25.5L38.4,25.5z"/>
<path fill-rule="evenodd" clip-rule="evenodd" fill="#F6EED0" d="M31.9,19c-1,0-2.5,1.5-2.5,2.5v0v0c0-1-1.5-2.5-2.5-2.5h0h0
	c1,0,2.5-1.5,2.5-2.5v0v0C29.5,17.5,30.9,19,31.9,19L31.9,19L31.9,19z"/>
<path fill-rule="evenodd" clip-rule="evenodd" fill="#F6EED0" d="M29.8,31.8c-0.9,0-2.1,1.2-2.1,2.1v0v0c0-0.9-1.2-2.1-2.1-2.1h0h0
	c0.9,0,2.1-1.2,2.1-2.1v0v0C27.7,30.6,29,31.8,29.8,31.8L29.8,31.8L29.8,31.8z"/>
<path fill-rule="evenodd" clip-rule="evenodd" fill="#C66E53" d="M38.9,41.5c-0.7,0-1.8,1.1-1.8,1.8v0v0c0-0.7-1.1-1.8-1.8-1.8h0h0
	c0.7,0,1.8-1.1,1.8-1.8v0v0C37.1,40.4,38.2,41.5,38.9,41.5L38.9,41.5L38.9,41.5z"/>
<path fill-rule="evenodd" clip-rule="evenodd" fill="#F6EFD2" d="M16.3,52.8c-0.8,0-1.9,1.1-1.9,1.9v0v0c0-0.8-1.1-1.9-1.9-1.9h0h0
	c0.8,0,1.9-1.1,1.9-1.9v0v0C14.4,51.7,15.5,52.8,16.3,52.8L16.3,52.8L16.3,52.8z"/>
</svg>
