<?xml version="1.0" encoding="utf-8"?>
<!-- Generator: Adobe Illustrator 17.1.0, SVG Export Plug-In . SVG Version: 6.00 Build 0)  -->
<!DOCTYPE svg PUBLIC "-//W3C//DTD SVG 1.1//EN" "http://www.w3.org/Graphics/SVG/1.1/DTD/svg11.dtd">
<svg version="1.1" id="Layer_1" xmlns="http://www.w3.org/2000/svg" xmlns:xlink="http://www.w3.org/1999/xlink" x="0px" y="0px"
	 viewBox="0 0 24.3 22.2" enable-background="new 0 0 24.3 22.2" xml:space="preserve">
<g>
	<g>
		<path fill="#C26B11" d="M8.4,10.1C8.4,10.1,8.4,10.1,8.4,10.1c0-2.1,1.7-3.8,3.7-3.8c2.1,0,3.7,1.7,3.7,3.7c0,0,0,0,0,0.1
			c1.4-0.5,3.4-0.7,5.2-0.4c0.1,0,0.2,0,0.3-0.1c0.1-0.1,0.1-0.2,0.1-0.3c0-0.4-0.1-0.9-0.2-1.3c-0.8,0-2.5,0-3,0
			c-0.4,0-0.7-0.2-0.7-0.6c0-0.8,1.2-1.4,2.1-0.8c0.1-0.5,0.5-0.8,0.8-0.9c-1.6-3-4.7-5-8.3-5C8.9,0.7,6,2.4,4.3,5
			c0.2,0.1,0.4,0.3,0.5,0.5C5,5.4,5.2,5.4,5.4,5.4c0.9,0,1.7,0.7,1.7,1.7c0,0.5-0.2,0.8-0.7,0.8c-0.4,0-2.1,0-3.3,0
			C3,8.3,2.9,8.8,2.8,9.4c0,0.1,0,0.2,0.1,0.3s0.2,0.1,0.3,0.1C5,9.4,7,9.7,8.4,10.1z M10.2,3.4c0.3-0.4,0.7-0.5,1.2-0.5
			c0.5,0,0.9,0.2,1.2,0.6c0.2-0.7,0.8-1.2,1.6-1.2C15,2.3,15.7,3,15.7,4c0,0.5-0.2,0.8-0.7,0.8c-0.5,0-3.5,0-4.2,0
			C10,4.8,9.6,4.1,10.2,3.4z"/>
	</g>
	<g>
		<path fill="#42B97C" d="M12.3,13.9c0-0.3,0.2-0.5,0.4-0.7c0.2-0.1,0.5-0.1,0.8,0c0.9,0.6,2.3,1.7,3.2,3.2c0.5,0.7,0.3,1.7-0.3,2.2
			c-0.4,0.3-0.8,0.6-1.3,0.9c-0.8,0.5-1.8,1-2.4,1.7c-0.1,0.1-0.2,0.1-0.3,0.1c-0.1,0-0.2-0.1-0.2-0.2V13.9z"/>
		<path fill="#42B97C" d="M14.2,12c-0.2,0-0.4,0.2-0.4,0.4c0,0.2,0,0.4,0.2,0.5c1.1,0.7,2.8,2,3.8,4c0.1,0.1,0.2,0.2,0.3,0.2
			c0.1,0,0.3,0,0.4-0.1c0.4-0.3,1-0.9,1.5-1.7c0.4-0.6,0.3-1.4-0.3-1.8C18.7,12.7,16.8,11.7,14.2,12z"/>
		<path fill="#42B97C" d="M15.4,11c-0.1,0-0.2,0.1-0.1,0.3s0.1,0.2,0.2,0.2c1.1,0,3.1,0.3,4.8,1.5c0.1,0.1,0.3,0.1,0.5,0.1
			s0.3-0.2,0.4-0.4c0-0.1,0.1-0.2,0.1-0.3c0.1-0.3,0.1-0.5,0-0.8c-0.1-0.2-0.3-0.4-0.6-0.5C19.4,10.7,17.2,10.2,15.4,11z"/>
		<path fill="#42B97C" d="M11.8,13.9c0-0.3-0.2-0.5-0.4-0.7c-0.2-0.1-0.5-0.1-0.8,0c-0.9,0.6-2.3,1.7-3.2,3.2
			c-0.5,0.7-0.3,1.7,0.3,2.2C8.1,19,8.5,19.4,9,19.6c0.8,0.5,1.8,1,2.4,1.7c0.1,0.1,0.2,0.1,0.3,0.1c0.1,0,0.2-0.1,0.2-0.2V13.9z"/>
		<path fill="#42B97C" d="M9.9,12c0.2,0,0.4,0.2,0.4,0.4c0,0.2,0,0.4-0.2,0.5c-1.1,0.7-2.8,2-3.8,4C6.3,17,6.2,17.1,6,17.1
			c-0.1,0-0.3,0-0.4-0.1c-0.4-0.3-1-0.9-1.5-1.7c-0.4-0.6-0.3-1.4,0.3-1.8C5.4,12.7,7.3,11.7,9.9,12z"/>
		<path fill="#42B97C" d="M8.7,11c0.1,0,0.2,0.1,0.1,0.3s-0.1,0.2-0.2,0.2c-1.1,0-3.1,0.3-4.8,1.5c-0.1,0.1-0.3,0.1-0.5,0.1
			S3,12.9,2.9,12.7c0-0.1-0.1-0.2-0.1-0.3c-0.1-0.3-0.1-0.5,0-0.8C3,11.3,3.2,11.1,3.5,11C4.7,10.7,6.9,10.2,8.7,11z"/>
	</g>
</g>
<g display="none">
	<path display="inline" fill="#C26B11" d="M10.3,1.5L10.3,1.5C10.6,2.6,12,3,12.9,2.3l0,0l0,0c-0.4,1.1,0.4,2.2,1.6,2.2l0,0l0,0
		c-1,0.7-1,2.1,0,2.7l0,0l0,0c-1.2,0-2,1.1-1.6,2.2l0,0l0,0c-0.9-0.7-2.3-0.3-2.6,0.8l0,0l0,0C10,9.2,8.6,8.8,7.7,9.5l0,0l0,0
		c0.4-1.1-0.4-2.2-1.6-2.2l0,0l0,0c1-0.7,1-2.1,0-2.7l0,0l0,0c1.2,0,2-1.1,1.6-2.2l0,0l0,0C8.6,3,10,2.6,10.3,1.5L10.3,1.5z"/>
	<path display="inline" fill="#42B97C" d="M16.9,12.3c0.9,0.1,2.8,0.7,4.2,1.6c2,1.3,2.4,2.5,1.7,2.7c-0.7,0.2-1.8-1.1-3.1-2
		c-1.4-0.9-3-1.8-3.2-1.9C16.3,12.5,16.3,12.3,16.9,12.3"/>
	<path display="inline" fill="#42B97C" d="M12.5,12.5c0.2-0.2,2-0.3,5.5,1.9c3.5,2.1,3.9,4.1,3,4.8c-0.9,0.7-2.1-0.5-2.8-1.5
		c-0.7-1.1-3.2-3.4-4.5-4.1C12.5,12.8,12.3,12.7,12.5,12.5"/>
	<path display="inline" fill="#42B97C" d="M6.7,12.8c0-0.3,1-0.6,2.8-0.2c1.8,0.4,3.9,1.4,6,3.7c2.1,2.3,1.6,3.9,0.1,4.3
		c-1.5,0.4-2.6-0.9-3.7-2.8c-1.2-2.1-3.8-3.9-4.5-4.3S6.7,13,6.7,12.8"/>
	<path display="inline" fill="#42B97C" d="M3.1,13.5C3,13.2,4.4,12.9,6.2,14c1.8,1.1,4,3,4.1,5.3c0.1,2.2-2.4,1.3-3,0.1
		c-0.6-1.3-1.6-3.2-2.9-4.5C3.1,13.7,3.1,13.7,3.1,13.5"/>
	<path display="inline" fill="#42B97C" d="M1.3,14c0.3-0.1,1.2,0,2.2,1.6c1,1.6,1.3,3,0,3.4c-1.3,0.3-1.7-1.9-2-3
		C1.3,15.3,0.8,14.2,1.3,14"/>
</g>
<g display="none">
	<path display="inline" fill="#C26B11" d="M14.2,18c0,0.4,0.5,0.1,0.6-0.4c0.1-0.5,0.8-1.6,1.5-2.2c0.7-0.7,1-1.3,1.1-2.1
		c0-0.8,0-0.9-0.3-0.7c-0.3,0.2-1,1.1-1.3,1.8c0,0-0.1-0.2,0.1-1c0.2-0.8,0.1-1.4-0.1-1.5c-0.2-0.2-0.7,0.9-0.5,2
		c0.2,1.1,0.3,1.3,0.2,1.5C15.4,15.7,14.3,17.4,14.2,18"/>
	<path display="inline" fill="#C26B11" d="M16.7,12.5c0,0.2,0.7-0.6,0.9-0.5c0.2,0.1,0.1,0.6,0.2,0.9c0,0.3,0.7-0.7,0.8-1.5
		c0.1-0.8,0.1-1.1-0.1-1C18.2,10.4,17,10.8,16.7,12.5"/>
	<path display="inline" fill="#C26B11" d="M17.8,13.5c-0.1,0.1,0.9,0.1,1.4-0.4c0.6-0.4,0.7-1.1,0.6-1.2c-0.1-0.2-0.8,0-1.2,0.5
		C18.3,12.9,18,13.3,17.8,13.5"/>
	<path display="inline" fill="#C26B11" d="M17.7,14.3c0.2-0.4,1.1-0.5,1.3-0.4c0.2,0-0.9,1.5-2.1,1.7C16.5,15.7,17.4,14.7,17.7,14.3
		"/>
	<path display="inline" fill="#C26B11" d="M16.3,11.9c0.1,0.2,0.6-0.9,1-1.4c0.3-0.5,0-1.3-0.1-1.3C17,9.2,16,10.9,16.3,11.9"/>
	<path display="inline" fill="#C26B11" d="M17.8,10.1c-0.1,0.1,0.8-0.2,1,0c0.2,0.2,0.5-0.1,0.7-1C19.8,8.1,18.4,8.7,17.8,10.1"/>
	<path display="inline" fill="#C26B11" d="M18.9,11.5c0,0.2,1.9-0.3,2.1-1.6c0.1-0.4-0.9,0-1.4,0.3C19.1,10.5,18.9,11.2,18.9,11.5"
		/>
	<path display="inline" fill="#C26B11" d="M17.6,9.2c0.1,0.2,0.3-0.2,0.6-0.5c0.3-0.4,0.4-0.9,0.2-1.2C18.3,7.1,17.3,8.6,17.6,9.2"
		/>
	<path display="inline" fill="#C26B11" d="M19,8.1c0,0.1,0.5,0,0.7,0c0.3,0,0.1,0.7,0.2,0.8c0.2,0.1,0.8-1,0.7-1.6
		C20.5,6.7,19,7.6,19,8.1"/>
	<path display="inline" fill="#C26B11" d="M20.1,9.4c-0.1,0.2,1.1,0,1.7-0.5C22.7,8,21.5,7.5,20.1,9.4"/>
	<path display="inline" fill="#C26B11" d="M18.9,7.5c0.2,0.2,0.9-0.7,0.7-1.1C19.4,6,18.6,7.1,18.9,7.5"/>
	<path display="inline" fill="#C26B11" d="M20.3,6.7c0,0.1,0.7,0,0.7,0.4c0,0.5,0.5,0,0.7-0.6c0.2-0.6,0.2-0.8,0-0.8
		C21.2,5.7,20.3,6.3,20.3,6.7"/>
	<path display="inline" fill="#C26B11" d="M21.1,8c0.2,0.1,1.2-0.2,1.4-0.9c0.3-0.7-0.7-0.1-0.9,0.2S20.9,7.9,21.1,8"/>
	<path display="inline" fill="#C26B11" d="M19.9,6.4c0.2,0.1,0.7-0.5,0.9-0.9c0.3-0.4-0.5,0-0.7,0.3C19.9,6,19.8,6.3,19.9,6.4"/>
	<path display="inline" fill="#C26B11" d="M21.2,5.4c0.1,0.4,0.7-0.4,0.7-0.6S21.1,5.3,21.2,5.4"/>
	<path display="inline" fill="#C26B11" d="M22.1,6.5C22.3,6.7,23,6,23.1,5.7c0-0.3-0.6,0-0.8,0.2C22.1,6.1,22,6.4,22.1,6.5"/>
	<path display="inline" fill="#C26B11" d="M22,5.5c0.2,0.1,0.9-0.2,0.8-0.5C22.6,4.7,21.7,5.3,22,5.5"/>
	<path display="inline" fill="#C26B11" d="M7.6,12.5c0,0.2-0.7-0.6-0.9-0.5c-0.2,0.1-0.1,0.6-0.2,0.9s-0.7-0.7-0.8-1.5
		c-0.1-0.8-0.1-1.1,0.1-1C6.1,10.4,7.3,10.8,7.6,12.5"/>
	<path display="inline" fill="#C26B11" d="M6.5,13.5c0.1,0.1-0.9,0.1-1.4-0.4c-0.6-0.4-0.7-1.1-0.6-1.2c0.1-0.2,0.8,0,1.2,0.5
		C6,12.9,6.3,13.3,6.5,13.5"/>
	<path display="inline" fill="#C26B11" d="M8,11.9c-0.1,0.2-0.6-0.9-1-1.4C6.7,10,7,9.3,7.1,9.2C7.3,9.2,8.3,10.9,8,11.9"/>
	<path display="inline" fill="#C26B11" d="M6.4,10.1c0.1,0.1-0.8-0.2-1,0c-0.2,0.2-0.5-0.1-0.7-1C4.5,8.1,5.9,8.7,6.4,10.1"/>
	<path display="inline" fill="#C26B11" d="M5.4,11.5c0,0.2-1.9-0.3-2.1-1.6c-0.1-0.4,0.9,0,1.4,0.3C5.1,10.5,5.4,11.2,5.4,11.5"/>
	<path display="inline" fill="#C26B11" d="M6.7,9.2C6.6,9.4,6.3,9,6.1,8.7C5.8,8.3,5.7,7.8,5.8,7.5C6,7.1,7,8.6,6.7,9.2"/>
	<path display="inline" fill="#C26B11" d="M5.3,8.1c0,0.1-0.5,0-0.7,0c-0.3,0-0.1,0.7-0.2,0.8C4.1,9,3.5,7.9,3.6,7.3
		C3.8,6.7,5.2,7.6,5.3,8.1"/>
	<path display="inline" fill="#C26B11" d="M4.2,9.4c0.1,0.2-1.1,0-1.7-0.5C1.5,8,2.7,7.5,4.2,9.4"/>
	<path display="inline" fill="#C26B11" d="M5.4,7.5C5.2,7.7,4.5,6.7,4.7,6.3C4.9,6,5.6,7.1,5.4,7.5"/>
	<path display="inline" fill="#C26B11" d="M4,6.7c0,0.1-0.7,0-0.7,0.4c0,0.5-0.5,0-0.7-0.6c-0.2-0.6-0.2-0.8,0-0.8
		C3,5.7,4,6.3,4,6.7"/>
	<path display="inline" fill="#C26B11" d="M3.2,8C3,8.1,2.1,7.8,1.8,7.1C1.5,6.4,2.4,7,2.7,7.3S3.4,7.9,3.2,8"/>
	<path display="inline" fill="#C26B11" d="M4.4,6.4C4.2,6.5,3.7,5.8,3.4,5.5c-0.3-0.4,0.5,0,0.7,0.3C4.3,6,4.5,6.3,4.4,6.4"/>
	<path display="inline" fill="#C26B11" d="M3.1,5.4C3,5.8,2.4,5.1,2.4,4.9S3.1,5.3,3.1,5.4"/>
	<path display="inline" fill="#C26B11" d="M2.2,6.5C2,6.7,1.3,6,1.2,5.7c0-0.3,0.6,0,0.8,0.2C2.1,6.1,2.2,6.4,2.2,6.5"/>
	<path display="inline" fill="#C26B11" d="M2.3,5.5C2.1,5.6,1.4,5.3,1.5,5C1.7,4.7,2.5,5.3,2.3,5.5"/>
	<path display="inline" fill="#C26B11" d="M12,1.5c0.1,0,0.2-0.1,0.4,0c0.1,0,0.2,0,0.2-0.1c0-0.5,0-1.4-0.4-1.4s-0.4,0.8-0.4,1.4
		C11.8,1.5,11.9,1.5,12,1.5"/>
	<path display="inline" fill="#C26B11" d="M11.9,3.9c0.1,0,0.3-0.1,0.5,0c0.1,0,0.2,0,0.2-0.2c0-0.6,0-1.9-0.5-1.9
		c-0.5,0-0.5,1.3-0.5,1.9C11.6,3.8,11.8,3.9,11.9,3.9"/>
	<path display="inline" fill="#C26B11" d="M11.9,6.2c0.1,0,0.3-0.1,0.5,0c0.1,0,0.2,0,0.2-0.2c0-0.6,0-1.9-0.5-1.9
		c-0.5,0-0.5,1.3-0.5,1.9C11.6,6.2,11.8,6.3,11.9,6.2"/>
	<path display="inline" fill="#C26B11" d="M11.8,8.9c0.2-0.1,0.4-0.1,0.6,0c0.1,0.1,0.3,0,0.3-0.2c0-0.7,0-2.2-0.6-2.2
		S11.5,8,11.6,8.7C11.6,8.9,11.7,9,11.8,8.9"/>
	<path display="inline" fill="#C26B11" d="M13,1.8c0.2,0.1,0.4-0.1,0.4-0.6c0-0.4-0.2-0.8-0.3-0.8C13,0.5,13,0.8,13,1.1
		C12.9,1.4,12.9,1.8,13,1.8"/>
	<path display="inline" fill="#C26B11" d="M13,3.2c0,0.2,0.9-0.5,0.6-1.3c-0.1-0.2-0.3,0.2-0.4,0.4C13,2.5,12.9,2.8,13,3.2"/>
	<path display="inline" fill="#C26B11" d="M13.1,5.9c0,0.2,1.1-1,0.6-2.6C13.6,2.9,13.1,3.8,13,4C12.9,4.4,13,5.6,13.1,5.9"/>
	<path display="inline" fill="#C26B11" d="M13,8.3c0,0.2,0.9-0.7,1-1.3c0.1-0.7,0-1.1-0.2-1.2c-0.1-0.1-0.5,0.6-0.7,0.8
		C12.9,6.7,13.1,7.7,13,8.3"/>
	<path display="inline" fill="#C26B11" d="M11.3,1.8c-0.2,0.1-0.4-0.1-0.4-0.6c0-0.4,0.2-0.8,0.3-0.8c0.1,0,0.1,0.3,0.1,0.7
		C11.4,1.4,11.4,1.8,11.3,1.8"/>
	<path display="inline" fill="#C26B11" d="M11.3,3.2c0,0.2-0.9-0.5-0.6-1.3c0.1-0.2,0.3,0.2,0.4,0.4C11.3,2.5,11.4,2.8,11.3,3.2"/>
	<path display="inline" fill="#C26B11" d="M11.2,5.9c0,0.2-1.1-1-0.6-2.6c0.1-0.4,0.6,0.5,0.6,0.7C11.4,4.4,11.3,5.6,11.2,5.9"/>
	<path display="inline" fill="#C26B11" d="M11.3,8.3c0,0.2-0.9-0.7-1-1.3c-0.1-0.7,0-1.1,0.2-1.2c0.1-0.1,0.5,0.6,0.7,0.8
		C11.4,6.7,11.2,7.7,11.3,8.3"/>
	<path display="inline" fill="#C26B11" d="M11.1,10.3c-0.2,0.1-0.9-0.7-1-1.3c-0.1-0.7,0-1,0.1-1.1c0.1-0.1,0.5,0.5,0.8,0.7
		c0.1,0.1,0.4,0.6,0.4,1.1C11.4,9.9,11.3,10.3,11.1,10.3"/>
	<path display="inline" fill="#C26B11" d="M13.4,14.2c0.2,0.1,0.8-0.8,0.6-1.4c-0.1-0.2-0.4,0.1-0.6,0.2
		C13.3,13.2,13.2,14.2,13.4,14.2"/>
	<path display="inline" fill="#C26B11" d="M12.4,13.9c0-0.4,0.6-0.5,0.6-0.1C12.9,14.2,12.4,14.4,12.4,13.9"/>
	<path display="inline" fill="#C26B11" d="M13.2,15.2c0-0.3,0.8-0.9,0.9-1.2c0.2-0.3,0.2,0.5,0.1,1.2c-0.1,0.7-0.3,1.1-0.5,1.1
		C13.5,16.3,13.2,15.6,13.2,15.2"/>
	<path display="inline" fill="#C26B11" d="M11,15c0.1,0,0.3,0.8,0.1,1c-0.2,0.2-0.6-0.1-0.7-0.3C10.3,15.6,10.7,15.1,11,15"/>
	<path display="inline" fill="#C26B11" d="M12.4,18.5c0.1-0.5,0.6-0.8,0.6-1.8s-0.6-2.2-0.8-2.2c-0.3,0-0.8,1.2-0.8,2.2
		s0.5,1.2,0.6,1.8c0.1,0.5-0.1,2.3-0.2,2.9c-0.1,0.6-0.2,0.6-0.1,0.7c0.1,0.1,0.3,0.1,0.5,0.1c0.1,0,0.4,0,0.5-0.1
		c0.1-0.1,0.1-0.1-0.1-0.7C12.5,20.8,12.3,19,12.4,18.5"/>
	<path display="inline" fill="#C26B11" d="M11.6,8.6c0,0.6,0.2,1.4,0.6,1c0.4-0.4,0.5-0.5,0.5-0.9s-0.4-0.4-0.4-0.4L11.6,8.6z"/>
	<path display="inline" fill="#C26B11" d="M10.3,10.3c0-0.2,0.4,0.1,0.5,0.3c0.1,0.2,0,0.4-0.2,0.5C10.4,11.1,10.2,10.7,10.3,10.3"
		/>
	<path display="inline" fill="#42B97C" d="M7.1,17.6l10-10l2.2-2.2c-1.1-1.3-2.7-2.3-4.4-2.8V4c0.9,0.3,1.8,0.8,2.6,1.4L6.2,16.7
		c-0.7-0.8-1.3-1.8-1.6-2.9c-0.4-0.5-1.1-1.3-1.6-1.8c0.2,4.4,3.5,8.1,7.8,8.8v-1.3C9.4,19.1,8.1,18.5,7.1,17.6"/>
	<path display="inline" fill="#42B97C" d="M5.3,5.3l1,0.8C7.2,5.2,8.2,4.5,9.4,4V2.7C7.8,3.2,6.4,4.1,5.3,5.3"/>
	<path display="inline" fill="#42B97C" d="M21.5,11.5c0-0.1,0-0.1,0-0.2c-0.4,0.7-1,1.6-1.5,2.1l0,0c-0.7,3-3.2,5.4-6.3,5.9v1.3
		C18.1,20,21.5,16.1,21.5,11.5"/>
	<path display="inline" fill="#C26B11" d="M8.5,11.9c-0.2,0.1-0.3,0.5-0.2,1c0,0.1,0.2,0.2,0.3,0.1c0.1-0.1,0.2-0.2,0.3-0.2
		c0.1-0.1,0.1-0.2,0.1-0.3C8.7,12.1,8.6,11.8,8.5,11.9"/>
	<path display="inline" fill="#C26B11" d="M7.2,12.6c-0.3-0.2-0.3-0.1-0.3,0.7c0,0.3,0.1,0.5,0.2,0.8c0,0.1,0.2,0.2,0.3,0.1
		c0.2-0.2,0.4-0.3,0.5-0.5c0.1-0.1,0.1-0.2,0-0.2C7.6,13.1,7.3,12.8,7.2,12.6"/>
	<path display="inline" fill="#C26B11" d="M9.4,16.5c-0.1,0.1-0.2,0.2-0.4,0.3c0.2,0.3,0.4,0.7,0.4,0.9c0.1,0.5,0.6,0.8,0.6,0.4
		C10,17.7,9.7,17,9.4,16.5"/>
	<path display="inline" fill="#C26B11" d="M6.6,14.3c-0.3-0.2-1.1-0.5-1.3-0.4c-0.2,0,0.3,0.6,0.9,1.1c0.1,0,0.2,0,0.2,0
		C7,14.5,6.9,14.5,6.6,14.3"/>
</g>
<g display="none">
	<polygon display="inline" fill="#42B97C" points="10.9,15.9 12.5,15.9 12.5,17.8 5.4,17.8 5.4,15.9 7,15.9 7,6.3 5.4,6.3 5.4,4.3 
		12.6,4.3 12.6,6.3 10.9,6.3 10.9,11 15.8,6.3 14.2,6.3 14.2,4.3 20.1,4.3 20.1,6.3 18.4,6.3 15.1,9.5 19.6,15.9 21,15.9 21,17.8 
		13.8,17.8 13.8,15.9 15.2,15.9 12.5,11.9 10.9,13.4 	"/>
	<polygon display="inline" fill="#C26B11" points="21.5,8.1 22.4,9.8 24.3,10.1 22.9,11.5 23.2,13.4 21.5,12.5 19.8,13.4 20.1,11.5 
		18.7,10.1 20.6,9.8 	"/>
	<polygon display="inline" fill="#C26B11" points="2.8,8.1 3.6,9.8 5.6,10.1 4.2,11.5 4.5,13.4 2.8,12.5 1.1,13.4 1.4,11.5 0,10.1 
		1.9,9.8 	"/>
</g>
<g display="none">
	<path display="inline" fill="#42B97C" d="M8.2,3.6c0.3,0.1,1,1,1,2.3c0,1.3,0,1.3,0.2,1.3c0.3,0.1,1.2-0.4,1.3-2.3
		C10.8,3,8.1,0.1,5.2,0.7C4.8,0.8,5.1,1,5.2,1.9c0.2,1.2,0.3,3.4,1.4,4.5c1.2,1,1.9,0.6,2-0.8C8.8,4.2,8.1,3.5,8.2,3.6"/>
	<path display="inline" fill="#42B97C" d="M2.6,9c0.1,0.3,0.8,0.4,1.5,1.2c0.6,0.7,1.6,1.6,2.8,1.5c1.2-0.1,1.6-0.9,1.1-2.1
		s-2-1.9-3.2-1.8C3.8,7.8,2.5,8.6,2.6,9"/>
	<path display="inline" fill="#42B97C" d="M11.3,8.4c0,0.3,0.5-0.2,1.6-0.8c1.1-0.6,3.1-1.2,3.6-0.8c0.3,0.3-1,0-2.9,1.2
		c-2,1.2-4.2,3-4.2,5.4c0,2.4,1.5,3.7,2.3,3.9c0.3,0.1-1-1.2-1.3-2.2c-0.3-1.1-0.4-3.4,1.9-3.9c1.6-0.3,3.9,1.5,6.9-1.3
		c1.1-1,2.7-3.7,3.5-4.3c0.8-0.6,0.3-1-0.3-1.4c-0.7-0.4-4.1-1.7-7.1-0.1C12.2,5.7,11.3,7.8,11.3,8.4"/>
	<path display="inline" fill="#C26B11" d="M11.8,14.9c0,0,0-0.1,0-0.2c0-0.1,0-0.1,0.1-0.2c0,0,0.1-0.1,0.1-0.1c0,0,0.1-0.1,0.1-0.1
		c0.1-0.1,0.2-0.2,0.3-0.2c0.1-0.1,0.2-0.1,0.3-0.2c0.1-0.1,0.3-0.1,0.4-0.1c0.1,0,0.3,0,0.4,0c0.1,0,0.3,0,0.4,0
		c0.1,0,0.3,0.1,0.4,0.1c0.1,0.1,0.2,0.1,0.3,0.2c0.1,0.1,0.2,0.2,0.3,0.2c0.1,0.1,0.1,0.2,0.2,0.2c0,0.1,0.1,0.1,0.1,0.2
		c0,0.1,0,0.2,0,0.2c0,0.1-0.1,0.2-0.2,0.2c0,0-0.1,0-0.1,0l0,0c0,0-0.1,0-0.1-0.1c-0.1,0-0.2-0.1-0.4-0.1c-0.1,0-0.1,0-0.2-0.1
		c-0.1,0-0.2,0-0.2,0c-0.2,0-0.3,0-0.5,0c-0.1,0-0.2,0-0.3,0c-0.1,0-0.2,0-0.3,0c-0.1,0-0.2,0-0.2,0c-0.1,0-0.2,0-0.2,0.1
		c-0.1,0-0.1,0-0.2,0.1c-0.1,0-0.1,0-0.2,0.1c-0.1,0-0.2,0.1-0.2,0.1c-0.1,0-0.2,0-0.2-0.1C11.8,14.9,11.8,14.9,11.8,14.9L11.8,14.9
		z"/>
	<path display="inline" fill="#C26B11" d="M16.4,16.8c0,0,0-0.1,0-0.2c0-0.1,0-0.1,0.1-0.2c0,0,0.1-0.1,0.1-0.1c0,0,0.1-0.1,0.1-0.1
		c0.1-0.1,0.2-0.2,0.3-0.3c0.1-0.1,0.2-0.2,0.4-0.2s0.3-0.1,0.4-0.1c0.1,0,0.3,0,0.5-0.1c0.2,0,0.3,0,0.5,0c0.2,0,0.3,0.1,0.4,0.1
		c0.1,0.1,0.3,0.1,0.4,0.2c0.1,0.1,0.2,0.2,0.3,0.3c0.1,0.1,0.1,0.2,0.2,0.3c0,0.1,0.1,0.2,0.1,0.2c0,0.1,0.1,0.2,0.1,0.2
		c0,0.1-0.1,0.2-0.2,0.2c0,0-0.1,0-0.1,0l0,0c0,0-0.1,0-0.2-0.1c-0.1,0-0.2-0.1-0.4-0.1c-0.1,0-0.2,0-0.2-0.1c-0.1,0-0.2,0-0.3,0
		c-0.2,0-0.4,0-0.6,0c-0.1,0-0.2,0-0.3,0c-0.1,0-0.2,0-0.3,0c-0.1,0-0.2,0-0.3,0c-0.1,0-0.2,0-0.2,0.1c-0.1,0-0.1,0-0.2,0.1
		c-0.1,0-0.1,0-0.2,0.1C16.7,17,16.6,17,16.6,17c-0.1,0-0.2,0-0.3-0.1C16.4,16.9,16.4,16.8,16.4,16.8L16.4,16.8z"/>
	<path display="inline" fill="#C26B11" d="M14.8,15.3c0,0,0-0.1,0-0.2c0-0.1,0-0.1,0.1-0.2c0,0,0.1-0.1,0.1-0.1c0,0,0.1-0.1,0.1-0.1
		c0.1-0.1,0.2-0.2,0.3-0.2c0.1-0.1,0.2-0.2,0.3-0.2c0.1-0.1,0.3-0.1,0.4-0.1c0.1,0,0.3,0,0.4-0.1c0.1,0,0.3,0,0.4,0
		c0.1,0,0.3,0.1,0.4,0.1c0.1,0.1,0.2,0.1,0.3,0.2c0.1,0.1,0.2,0.2,0.3,0.2c0.1,0.1,0.1,0.2,0.2,0.2c0,0.1,0.1,0.1,0.1,0.2
		c0,0.1,0.1,0.2,0.1,0.2c0,0.1-0.1,0.2-0.2,0.2c0,0-0.1,0-0.1,0l0,0c0,0-0.1,0-0.2-0.1c-0.1,0-0.2-0.1-0.4-0.1c-0.1,0-0.1,0-0.2-0.1
		c-0.1,0-0.2,0-0.2,0c-0.2,0-0.4,0-0.5,0c-0.1,0-0.2,0-0.3,0c-0.1,0-0.2,0-0.3,0c-0.1,0-0.2,0-0.3,0c-0.1,0-0.2,0-0.2,0.1
		c-0.1,0-0.1,0-0.2,0.1c-0.1,0-0.1,0-0.2,0.1c-0.1,0-0.2,0.1-0.2,0.1c-0.1,0-0.2,0-0.2-0.1C14.8,15.4,14.8,15.4,14.8,15.3L14.8,15.3
		z"/>
	<path display="inline" fill="#C26B11" d="M17.8,15.5c0,0,0-0.1,0-0.2c0,0,0-0.1,0.1-0.2c0,0,0-0.1,0.1-0.1c0,0,0.1-0.1,0.1-0.1
		c0.1-0.1,0.1-0.1,0.2-0.2c0.1-0.1,0.2-0.1,0.3-0.2c0.1,0,0.2-0.1,0.4-0.1c0.1,0,0.3,0,0.4,0c0.1,0,0.3,0,0.4,0
		c0.1,0,0.2,0.1,0.4,0.1c0.1,0.1,0.2,0.1,0.3,0.2c0.1,0.1,0.2,0.1,0.2,0.2c0.1,0.1,0.1,0.1,0.1,0.2c0,0.1,0.1,0.1,0.1,0.2
		c0,0.1,0,0.2,0,0.2c0,0.1,0,0.2-0.1,0.2c0,0-0.1,0-0.1,0l0,0c0,0-0.1,0-0.1-0.1c-0.1,0-0.2-0.1-0.3-0.1c-0.1,0-0.1,0-0.2-0.1
		c-0.1,0-0.1,0-0.2,0c-0.1,0-0.3,0-0.5,0c-0.1,0-0.2,0-0.2,0c-0.1,0-0.2,0-0.2,0c-0.1,0-0.1,0-0.2,0c-0.1,0-0.1,0-0.2,0.1
		c-0.1,0-0.1,0-0.2,0c0,0-0.1,0-0.1,0.1c-0.1,0-0.1,0.1-0.1,0.1C17.9,15.8,17.8,15.7,17.8,15.5C17.8,15.6,17.8,15.6,17.8,15.5
		L17.8,15.5z"/>
	<path display="inline" fill="#C26B11" d="M15.1,17.2c0,0,0-0.1,0-0.2c0,0,0-0.1,0.1-0.2c0,0,0-0.1,0.1-0.1c0,0,0.1-0.1,0.1-0.1
		c0.1-0.1,0.1-0.1,0.2-0.2c0.1-0.1,0.2-0.1,0.3-0.2c0.1,0,0.2-0.1,0.4-0.1c0.1,0,0.3,0,0.4,0c0.1,0,0.3,0,0.4,0
		c0.1,0,0.3,0.1,0.4,0.1c0.1,0.1,0.2,0.1,0.3,0.2c0.1,0.1,0.2,0.1,0.2,0.2c0.1,0.1,0.1,0.1,0.2,0.2c0,0.1,0.1,0.1,0.1,0.2
		c0,0.1,0,0.2,0,0.2c0,0.1,0,0.2-0.1,0.2c0,0-0.1,0-0.1,0l0,0c0,0-0.1,0-0.1-0.1c-0.1,0-0.2-0.1-0.3-0.1c-0.1,0-0.1,0-0.2-0.1
		c-0.1,0-0.1,0-0.2,0c-0.2,0-0.3,0-0.5,0c-0.1,0-0.2,0-0.2,0c-0.1,0-0.2,0-0.2,0c-0.1,0-0.2,0-0.2,0c-0.1,0-0.1,0-0.2,0.1
		c-0.1,0-0.1,0-0.2,0c0,0-0.1,0-0.1,0.1c-0.1,0-0.1,0.1-0.1,0.1C15.2,17.4,15.1,17.4,15.1,17.2C15.1,17.3,15.1,17.3,15.1,17.2
		L15.1,17.2z"/>
	<path display="inline" fill="#C26B11" d="M12.7,18.9c0,0,0-0.1,0-0.2c0,0,0-0.1,0.1-0.2c0,0,0-0.1,0.1-0.1c0,0,0.1-0.1,0.1-0.1
		c0.1-0.1,0.1-0.1,0.2-0.2c0.1-0.1,0.2-0.1,0.3-0.2c0.1,0,0.2-0.1,0.4-0.1c0.1,0,0.3,0,0.4,0c0.1,0,0.3,0,0.4,0
		c0.1,0,0.3,0.1,0.4,0.1c0.1,0.1,0.2,0.1,0.3,0.2c0.1,0.1,0.2,0.1,0.2,0.2c0.1,0.1,0.1,0.1,0.2,0.2c0,0.1,0.1,0.1,0.1,0.2
		c0,0.1,0,0.2,0,0.2c0,0.1,0,0.2-0.1,0.2c0,0-0.1,0-0.1,0l0,0c0,0-0.1,0-0.1-0.1c-0.1,0-0.2-0.1-0.3-0.1c-0.1,0-0.1,0-0.2-0.1
		c-0.1,0-0.2,0-0.2,0c-0.2,0-0.3,0-0.5,0c-0.1,0-0.2,0-0.2,0c-0.1,0-0.2,0-0.2,0c-0.1,0-0.2,0-0.2,0c-0.1,0-0.1,0-0.2,0.1
		c-0.1,0-0.1,0-0.2,0.1c0,0-0.1,0-0.1,0.1C13,19,12.9,19,12.9,19C12.8,19.1,12.7,19,12.7,18.9C12.7,18.9,12.7,18.9,12.7,18.9
		L12.7,18.9z"/>
	<path display="inline" fill="#C26B11" d="M17.3,18.6C17.3,18.6,17.3,18.6,17.3,18.6c0-0.1,0-0.1,0.1-0.2c0,0,0,0,0-0.1
		c0,0,0,0,0-0.1c0,0,0.1-0.1,0.1-0.1c0,0,0.1-0.1,0.2-0.1c0.1,0,0.1-0.1,0.2-0.1c0.1,0,0.1,0,0.2,0c0.1,0,0.1,0,0.2,0
		c0.1,0,0.1,0,0.2,0.1c0.1,0,0.1,0.1,0.2,0.1c0.1,0,0.1,0.1,0.1,0.1c0,0,0.1,0.1,0.1,0.1c0,0,0,0.1,0,0.1c0,0.1,0,0.1,0,0.1
		c0,0,0,0.1-0.1,0.1c0,0,0,0,0,0l0,0c0,0,0,0-0.1,0c0,0-0.1,0-0.2-0.1c0,0-0.1,0-0.1,0c0,0-0.1,0-0.1,0c-0.1,0-0.2,0-0.3,0
		c0,0-0.1,0-0.1,0c0,0-0.1,0-0.1,0c0,0-0.1,0-0.1,0c0,0-0.1,0-0.1,0c0,0-0.1,0-0.1,0c0,0-0.1,0-0.1,0c0,0-0.1,0-0.1,0
		C17.4,18.8,17.4,18.7,17.3,18.6C17.3,18.7,17.3,18.7,17.3,18.6L17.3,18.6z"/>
	<path display="inline" fill="#C26B11" d="M16.6,20.1C16.6,20.1,16.6,20.1,16.6,20.1c0-0.1,0-0.1,0-0.1c0,0,0,0,0,0c0,0,0,0,0,0
		c0,0,0-0.1,0.1-0.1c0,0,0.1-0.1,0.1-0.1c0,0,0.1,0,0.1,0c0,0,0.1,0,0.1,0c0,0,0.1,0,0.1,0c0,0,0.1,0,0.1,0c0,0,0.1,0,0.1,0.1
		c0,0,0.1,0.1,0.1,0.1c0,0,0,0.1,0.1,0.1c0,0,0,0.1,0,0.1c0,0,0,0.1,0,0.1c0,0,0,0.1,0,0.1c0,0,0,0,0,0l0,0c0,0,0,0,0,0
		c0,0-0.1,0-0.1,0c0,0,0,0-0.1,0c0,0-0.1,0-0.1,0c-0.1,0-0.1,0-0.2,0c0,0-0.1,0-0.1,0c0,0-0.1,0-0.1,0c0,0-0.1,0-0.1,0
		c0,0,0,0-0.1,0c0,0,0,0-0.1,0c0,0,0,0-0.1,0C16.7,20.2,16.7,20.2,16.6,20.1C16.6,20.2,16.6,20.2,16.6,20.1
		C16.6,20.2,16.6,20.2,16.6,20.1L16.6,20.1z"/>
	<path display="inline" fill="#C26B11" d="M11.4,21.5C11.4,21.5,11.4,21.4,11.4,21.5c0-0.1,0-0.1,0.1-0.2c0,0,0,0,0-0.1c0,0,0,0,0,0
		c0,0,0.1-0.1,0.1-0.1s0.1-0.1,0.2-0.1c0.1,0,0.1,0,0.2-0.1c0.1,0,0.1,0,0.2,0c0.1,0,0.1,0,0.2,0c0.1,0,0.1,0,0.2,0.1
		c0.1,0,0.1,0,0.2,0.1c0,0,0.1,0.1,0.1,0.1c0,0,0.1,0.1,0.1,0.1c0,0,0,0.1,0,0.1c0,0,0,0.1,0,0.1c0,0,0,0.1-0.1,0.1c0,0,0,0,0,0l0,0
		c0,0,0,0-0.1,0c0,0-0.1,0-0.2-0.1c0,0-0.1,0-0.1,0c0,0-0.1,0-0.1,0c-0.1,0-0.2,0-0.2,0c0,0-0.1,0-0.1,0c0,0-0.1,0-0.1,0
		c0,0-0.1,0-0.1,0c0,0-0.1,0-0.1,0c0,0-0.1,0-0.1,0c0,0-0.1,0-0.1,0c0,0-0.1,0-0.1,0C11.5,21.6,11.4,21.5,11.4,21.5
		C11.4,21.5,11.4,21.5,11.4,21.5L11.4,21.5z"/>
	<path display="inline" fill="#C26B11" d="M3.7,18.8C3.7,18.8,3.8,18.8,3.7,18.8c0-0.1,0-0.1,0.1-0.2c0,0,0,0,0-0.1c0,0,0,0,0,0
		c0,0,0.1-0.1,0.1-0.1c0,0,0.1-0.1,0.2-0.1c0.1,0,0.1,0,0.2-0.1c0.1,0,0.1,0,0.2,0c0.1,0,0.1,0,0.2,0c0.1,0,0.1,0,0.2,0.1
		c0.1,0,0.1,0,0.2,0.1c0,0,0.1,0.1,0.1,0.1c0,0,0.1,0.1,0.1,0.1c0,0,0,0.1,0,0.1c0,0,0,0.1,0,0.1c0,0,0,0.1-0.1,0.1c0,0,0,0,0,0l0,0
		c0,0,0,0-0.1,0c0,0-0.1,0-0.2-0.1c0,0-0.1,0-0.1,0c0,0-0.1,0-0.1,0c-0.1,0-0.2,0-0.2,0c0,0-0.1,0-0.1,0c0,0-0.1,0-0.1,0
		c0,0-0.1,0-0.1,0c0,0-0.1,0-0.1,0c0,0-0.1,0-0.1,0c0,0-0.1,0-0.1,0c0,0-0.1,0-0.1,0C3.8,18.9,3.8,18.9,3.7,18.8
		C3.7,18.9,3.7,18.9,3.7,18.8L3.7,18.8z"/>
	<path display="inline" fill="#C26B11" d="M6.4,20.8C6.4,20.8,6.4,20.8,6.4,20.8c0-0.1,0-0.1,0-0.2c0,0,0,0,0-0.1c0,0,0,0,0,0
		c0,0,0.1-0.1,0.1-0.1c0,0,0.1-0.1,0.1-0.1c0,0,0.1,0,0.1-0.1c0,0,0.1,0,0.1,0c0,0,0.1,0,0.1,0c0,0,0.1,0,0.1,0.1c0,0,0.1,0,0.1,0.1
		c0,0,0.1,0.1,0.1,0.1c0,0,0,0.1,0.1,0.1c0,0,0,0.1,0,0.1c0,0,0,0.1,0,0.1c0,0,0,0.1-0.1,0.1c0,0,0,0,0,0l0,0c0,0,0,0,0,0
		c0,0-0.1,0-0.1-0.1c0,0,0,0-0.1,0c0,0-0.1,0-0.1,0c-0.1,0-0.1,0-0.2,0c0,0-0.1,0-0.1,0c0,0-0.1,0-0.1,0c0,0-0.1,0-0.1,0
		c0,0-0.1,0-0.1,0c0,0,0,0-0.1,0c0,0,0,0-0.1,0C6.5,20.9,6.4,20.9,6.4,20.8C6.4,20.9,6.4,20.9,6.4,20.8C6.4,20.8,6.4,20.8,6.4,20.8
		L6.4,20.8z"/>
	<path display="inline" fill="#C26B11" d="M8.9,20.5c0.2,0.2,0.6-0.5,2.5-0.7c1.9-0.2,2.7,0.1,3.2,0.4c0.5,0.3,0.3-1.1-1.2-1.5
		l-0.2-0.4c0,0-2-0.4-3.7,1.4C8.8,20.3,8.8,20.4,8.9,20.5"/>
	<path display="inline" fill="#C26B11" d="M6.8,19.2c0.2,0.2,1-0.6,2.4-0.3c1.4,0.3,1.8,0.6,2.2,0.2c0.5-0.3,1-0.6,0.9-0.7
		c0-0.1-0.8-0.6-2.5-0.7C8.2,17.6,6.6,18.9,6.8,19.2"/>
	<path display="inline" fill="#C26B11" d="M1.3,15.5c-0.1,0.2,1-0.5,2.1,0.4c0,0-1.1,0.5-1.4,1.5c-0.1,0.2,1-0.6,2.4-0.4
		c1.5,0.2,1.9,0.7,2.1,0.7c0.2,0,1-1,2.7-1c0,0-1-1.3-2.6-0.2c0,0-1-0.7-2.3-0.7c-1.3,0-0.1,0-0.1,0s1-0.9,2.5-0.5
		c0,0,0.7-0.7,1.6-0.5c0,0-1.6-2-3.4-0.4C4.9,14.4,2.5,13.3,1.3,15.5"/>
	<path display="inline" fill="#C26B11" d="M18.3,17.4c0.2-0.1,1.1-0.5,2.1-0.2c1,0.3-0.3-1.1-0.9-1.4c-0.6-0.3,0.3-0.4,0.9-0.2
		c0.6,0.2-0.2-0.6-0.4-0.6c-0.2,0-0.6-0.1-0.6-0.1c0,0-0.1,0-0.2,0.1c-0.1,0-0.6,0.1-0.6,0.1c0,0,0,1-0.1,1
		c-0.1,0.1-0.8,0.3-0.8,0.4C17.6,16.5,18.3,17.4,18.3,17.4"/>
	<path display="inline" fill="#C26B11" d="M14.1,19c-0.2-0.1-0.3-0.3,0.1-0.3c0.4,0,0.3-0.2,0.2-0.2c-0.1,0-0.4,0-0.6,0
		c-0.3,0-0.4,0-0.5,0.1c-0.1,0.1-0.4,0.6-0.3,0.6C13.1,19.2,14.1,19,14.1,19"/>
</g>
<g display="none">
	
		<rect x="5.8" y="0.1" transform="matrix(0.636 0.7717 -0.7717 0.636 5.4434 -3.3541)" display="inline" fill="#C26B11" width="1" height="8.1"/>
	
		<rect x="7" y="0.9" transform="matrix(0.6495 0.7603 -0.7603 0.6495 6.8435 -3.7113)" display="inline" fill="#C26B11" width="1" height="9.4"/>
	
		<rect x="8.2" y="3.3" transform="matrix(0.6495 0.7603 -0.7603 0.6495 8.388 -4.1609)" display="inline" fill="#C26B11" width="1" height="7.5"/>
	
		<rect x="15.8" y="12.1" transform="matrix(0.636 0.7717 -0.7717 0.636 18.0951 -6.8267)" display="inline" fill="#C26B11" width="1" height="7.3"/>
	
		<rect x="16.9" y="13" transform="matrix(0.6495 0.7603 -0.7603 0.6495 19.2334 -7.1269)" display="inline" fill="#C26B11" width="1" height="8.6"/>
	
		<rect x="18.3" y="15.3" transform="matrix(0.6495 0.7603 -0.7603 0.6495 20.699 -7.7568)" display="inline" fill="#C26B11" width="1" height="6.5"/>
	<path display="inline" fill="#42B97C" d="M7.2,17.5L18.3,6.1c1.2,1.4,2,3.3,2,5.3c0,0.2,0,0.4,0,0.5c0.4,0.1,0.8,0.4,1.2,0.9
		c0.1-0.5,0.1-0.9,0.1-1.4c0-4.8-3.7-8.8-8.4-9.2c0.2,0.5,0.3,1,0.3,1.3c1.5,0.2,2.8,0.8,3.9,1.7L6.3,16.6c-1.2-1.4-2-3.2-2-5.3
		c0-0.2,0-0.4,0-0.6c-0.5-0.1-0.9-0.3-1.2-0.5C3,10.6,3,11,3,11.4c0,5.1,4.1,9.2,9.1,9.3c-0.4-0.4-0.6-0.8-0.7-1.3
		C9.8,19.1,8.4,18.5,7.2,17.5"/>
	<path display="inline" fill="#C26B11" d="M10.4,9c0-0.1,0.1-0.1,0.1-0.2C11.3,8.5,12.2,8.2,13,8L14,6.9c-0.9,0-1.8,0.3-2.8,0.6
		c0.2-0.4,0.4-0.8,0.5-1.2c0.5-1.7,0.4-3.2-0.3-4.2C10.8,1.4,9.9,1,8.8,1h0C8.6,1,8.4,1.2,8.4,1.5C8.4,1.8,8.6,2,8.8,2
		c0.8,0,1.4,0.3,1.8,0.8c0.5,0.7,0.6,2,0.2,3.3c-0.2,0.6-0.5,1.3-1,2C9,8.4,8.1,8.7,7.4,8.8C6,9,4.8,8.7,4.2,8.1
		C3.7,7.6,3.6,7,3.7,6.2c0-0.3-0.1-0.5-0.4-0.6C3,5.6,2.8,5.8,2.7,6.1c-0.2,1.1,0.1,2,0.7,2.7c0.9,0.9,2.4,1.2,4.1,1
		c0.5-0.1,1-0.2,1.5-0.4c-0.8,1.3-1.4,2.7-1.2,4l1-1.1C9.1,11.3,9.7,10.1,10.4,9"/>
	<path display="inline" fill="#C26B11" d="M20.9,14c-0.4-0.7-1.8-2.1-5.2-0.9c1-1.6,1.5-2.8,1.3-3.9L16,10.3
		c-0.2,0.8-0.8,1.8-1.8,3.4c-0.9,0.4-1.6,0.6-2.2,0.8l-1.2,1.2c0.7-0.1,1.6-0.3,2.6-0.7c-1.5,3-0.4,4.5,0.2,5
		c1.2,1.1,2.6,1.2,3.2,1.2c0.1,0,0.2,0,0.3,0c0.3,0,0.5-0.3,0.4-0.5c0-0.3-0.3-0.5-0.5-0.4c0,0-1.5,0.1-2.7-0.9
		c-1-0.9-0.8-2.6,0.5-4.7c0,0,0.1-0.1,0.1-0.1c0.2-0.1,0.3-0.1,0.5-0.2c2.3-1,4-0.9,4.7,0.2c0.8,1.3,0.5,2.8,0.5,2.8
		c-0.1,0.3,0.1,0.5,0.3,0.6c0,0,0.1,0,0.1,0c0.2,0,0.4-0.1,0.5-0.4C21.5,17.5,21.9,15.6,20.9,14"/>
</g>
</svg>
