<?xml version="1.0" encoding="utf-8"?>
<!-- Generator: Adobe Illustrator 17.1.0, SVG Export Plug-In . SVG Version: 6.00 Build 0)  -->
<!DOCTYPE svg PUBLIC "-//W3C//DTD SVG 1.1//EN" "http://www.w3.org/Graphics/SVG/1.1/DTD/svg11.dtd">
<svg version="1.1" id="Layer_1" xmlns="http://www.w3.org/2000/svg" xmlns:xlink="http://www.w3.org/1999/xlink" x="0px" y="0px"
	 viewBox="0 0 28.9 19.2" enable-background="new 0 0 28.9 19.2" xml:space="preserve">
<path fill="#E3DBBB" d="M28.9,1.6c0,0.9-0.7,1.6-1.6,1.6H1.6C0.7,3.2,0,2.5,0,1.6l0,0C0,0.7,0.7,0,1.6,0h25.7
	C28.2,0,28.9,0.7,28.9,1.6L28.9,1.6z"/>
<path fill="#E3DBBB" d="M28.9,9.6c0,0.9-0.7,1.6-1.6,1.6H1.6C0.7,11.2,0,10.5,0,9.6l0,0C0,8.7,0.7,8,1.6,8h25.7
	C28.2,8,28.9,8.7,28.9,9.6L28.9,9.6z"/>
<path fill="#E3DBBB" d="M28.9,17.6c0,0.9-0.7,1.6-1.6,1.6H1.6c-0.9,0-1.6-0.7-1.6-1.6l0,0C0,16.7,0.7,16,1.6,16h25.7
	C28.2,16,28.9,16.7,28.9,17.6L28.9,17.6z"/>
</svg>
