<?xml version="1.0" encoding="utf-8"?>
<!-- Generator: Adobe Illustrator 17.1.0, SVG Export Plug-In . SVG Version: 6.00 Build 0)  -->
<!DOCTYPE svg PUBLIC "-//W3C//DTD SVG 1.1//EN" "http://www.w3.org/Graphics/SVG/1.1/DTD/svg11.dtd">
<svg version="1.1" id="Layer_1" xmlns="http://www.w3.org/2000/svg" xmlns:xlink="http://www.w3.org/1999/xlink" x="0px" y="0px"
	 viewBox="0 0 44.1 58.7" enable-background="new 0 0 44.1 58.7" xml:space="preserve">
<g>
	<path fill="#C66E53" d="M22,58.7c14.2,0,22-10.3,22-20.6v-0.2c0-16.5-14.8-31.2-21-37.4c-0.6-0.6-1.5-0.6-2.1,0
		C14.8,6.7,0,21.3,0,37.9v0.2C0,48.6,8,58.7,22,58.7z"/>
</g>
<path fill="#F6EFD2" d="M38.9,31.9c0.8,4.4-1,8.2-3.6,7.5c-1.2-0.3-1.4-2.3-1.7-4.4c-1.6-13.5-3.3-15.9-3.9-19
	c-0.1-0.3,0.1-0.5,0.3-0.7C31.5,14.7,37.3,23.1,38.9,31.9z"/>
<g>
	<path fill="#F6EFD2" d="M8.8,38.4c0.1-1.2-1.5-1.9-2.5-1.2c-0.1,0.1-0.2,0.1-0.3,0.2c-2,1.3-2.7,3.9-1.8,6.1c0,0,0,0.1,0,0.1
		C4.7,44.7,6.1,45,7,44.1c0,0,0,0,0,0C8.7,42.5,8.7,40.7,8.8,38.4z"/>
	<path fill="#F6EFD2" d="M10.7,51c-0.3-1-0.7-3-1.1-5.3c-0.1-0.6-0.8-0.9-1.3-0.6c0,0,0,0,0,0c-1.6,1.1-1.8,3.1-0.4,4.5
		c0.7,0.7,1.5,1.3,2.4,1.8C10.4,51.5,10.7,51.3,10.7,51z"/>
</g>
</svg>
