<?xml version="1.0" encoding="utf-8"?>
<!-- Generator: Adobe Illustrator 17.1.0, SVG Export Plug-In . SVG Version: 6.00 Build 0)  -->
<!DOCTYPE svg PUBLIC "-//W3C//DTD SVG 1.1//EN" "http://www.w3.org/Graphics/SVG/1.1/DTD/svg11.dtd">
<svg version="1.1" id="Layer_1" xmlns="http://www.w3.org/2000/svg" xmlns:xlink="http://www.w3.org/1999/xlink" x="0px" y="0px"
	 viewBox="0 0 599 548" enable-background="new 0 0 599 548" xml:space="preserve">
<path fill="#45B97C" d="M385,467.9c4.6,1.5,13.7-4.9,31.8-35.7s29.3-73.9,33.8-95.2s14.2-83.4,27.3-116.3
	c13.1-33,28.2-73,58.4-100.8c13.9-12.7,25.6-18.2,18.4-19.5s-19.5,0.9-27.7,5.3c-8.3,4.4-11.2,6.5-12.1,10.1s-1.7,5.5-6.9,6
	c-5.2,0.5-8.3-0.5-17.2,7.8s-13.2,12.3-13.7,16c-0.5,3.6-1.1,5.8-7.2,9c-6.1,3.1-8.5,7.4-12.7,12.9c-4.1,5.5-11.9,17-12.1,21.3
	c-0.3,4.3,0.8,8.4-4.7,11.7c-5.5,3.2-6.5,4.7-11.2,13.6c-4.7,9-11.2,24-11.9,29.9c-0.7,5.8,1.9,9-0.7,11.7c-2.5,2.7-7.6,7.4-10.9,13
	c-3.3,5.6-10.9,28-13.1,36.2c-2.1,8.2-3.2,11.8-1.5,16.8c1.7,4.9,3.9,6.5,0.5,10.5c-3.3,4-7.2,16.6-7.6,28.8s-0.6,64.2-1.3,76.5
	C381.4,458.5,379.5,466,385,467.9z"/>
<path fill="#45B97C" d="M378.7,281.6c4,0.6,10.9-6.6,17.1-30.4c6.8-26.2,8.6-53.2,9.1-68.8c1.5-48.8,6.2-118.4,28.4-161.8
	c1.8-3.5,7.1-11.9,4.1-12.7c-6.7-1.9-24.2,28.8-30,49.6c-2.8,10.1,1.3,13.5-2.3,17.5s-6.4,8.6-8.8,16c-2.4,7.4-5.3,21.1-4.3,26.7
	c1.1,5.6,2.4,6.8-1.6,10.9c-4,4.2-6.7,13.5-8.3,21.4c-1.6,7.9-5.3,28.7-3.1,32.3c2.3,3.6,3.6,7.5,0.1,11.4
	c-3.5,3.9-4.9,8.6-4.8,15.1C375,262.9,372.2,280.6,378.7,281.6z"/>
<path fill="#45B97C" d="M381,519.6c13-2.2,38.5-12.6,53.1-27.7c19.7-20.4,45.7-50.8,65.4-100.2s45.6-101.8,69.3-128.8
	c23.7-27,36.3-29.3,27.2-31.4c-9.1-2.1-24.7,9.2-37.5,18.3c-12.8,9.1-12.1,15.6-14.1,19.1c-2,3.5-3.7,3.9-7.6,5.3
	c-3.9,1.4-9.2,6.2-17.2,16.8c-8,10.5-9.5,16.9-10.1,21.2c-0.7,4.3-1.9,4.8-6,6.4c-4.1,1.6-9.7,7-15.6,16.4
	c-5.9,9.3-13.6,20.3-13.9,25.9c-0.3,5.6,1.2,8.8-3.2,11.6s-9.3,6.2-20.4,24.4c-11.1,18.2-16,27.5-16.7,32.6c-0.7,5.1,1.1,7.5-4,10.1
	c-5.1,2.6-9.2,9.1-15.2,18.4c-6,9.3-26.4,38.4-34.1,47c-4.4,4.9-9.5,10.4-7.3,13.4C374.2,519.7,376.7,520.3,381,519.6z"/>
<path fill="#45B97C" d="M213.9,467.9c-4.6,1.5-13.7-4.9-31.8-35.7s-29.3-73.9-33.8-95.2c-4.4-21.3-14.2-83.4-27.3-116.3
	c-13.1-33-28.2-73-58.4-100.8c-13.9-12.7-25.6-18.2-18.4-19.5s19.5,0.9,27.7,5.3c8.3,4.4,11.2,6.5,12.1,10.1c0.9,3.6,1.7,5.5,6.9,6
	c5.2,0.5,8.3-0.5,17.2,7.8s13.2,12.3,13.7,16c0.5,3.6,1.1,5.8,7.2,9c6.1,3.1,8.5,7.4,12.7,12.9c4.1,5.5,11.9,17,12.1,21.3
	c0.3,4.3-0.8,8.4,4.7,11.7c5.5,3.2,6.5,4.7,11.2,13.6c4.7,9,11.2,24,11.9,29.9c0.7,5.8-1.9,9,0.7,11.7c2.5,2.7,7.6,7.4,10.9,13
	c3.3,5.6,10.9,28,13.1,36.2c2.1,8.2,3.2,11.8,1.5,16.8c-1.7,4.9-3.9,6.5-0.5,10.5c3.3,4,7.2,16.6,7.6,28.8
	c0.4,12.1,0.6,64.2,1.3,76.5C217.6,458.5,219.5,466,213.9,467.9z"/>
<path fill="#45B97C" d="M220.3,281.6c-4,0.6-10.9-6.6-17.1-30.4c-6.8-26.2-8.6-53.2-9.1-68.8c-1.5-48.8-6.2-118.4-28.4-161.8
	c-1.8-3.5-7.1-11.9-4.1-12.7c6.7-1.9,24.2,28.8,30,49.6c2.8,10.1-1.3,13.5,2.3,17.5c3.6,4,6.4,8.6,8.8,16c2.4,7.4,5.3,21.1,4.3,26.7
	c-1.1,5.6-2.4,6.8,1.6,10.9c4,4.2,6.7,13.5,8.3,21.4s5.3,28.7,3.1,32.3c-2.3,3.6-3.6,7.5-0.1,11.4c3.5,3.9,4.9,8.6,4.8,15.1
	C224,262.9,226.7,280.6,220.3,281.6z"/>
<path fill="#45B97C" d="M218,519.6c-13-2.2-38.5-12.6-53.1-27.7c-19.7-20.4-45.7-50.8-65.4-100.2S53.9,289.9,30.2,262.9
	S-6.1,233.6,3,231.5c9.1-2.1,24.7,9.2,37.5,18.3c12.8,9.1,12.1,15.6,14.1,19.1c2,3.5,3.7,3.9,7.6,5.3s9.2,6.2,17.2,16.8
	c8,10.5,9.5,16.9,10.1,21.2s1.9,4.8,6,6.4c4.1,1.6,9.7,7,15.6,16.4c5.9,9.3,13.6,20.3,13.9,25.9c0.3,5.6-1.2,8.8,3.2,11.6
	c4.4,2.9,9.3,6.2,20.4,24.4c11.1,18.2,16,27.5,16.7,32.6c0.7,5.1-1.1,7.5,4,10.1c5.1,2.6,9.2,9.1,15.2,18.4c6,9.3,26.4,38.4,34.1,47
	c4.4,4.9,9.5,10.4,7.3,13.4C224.8,519.7,222.3,520.3,218,519.6z"/>
<path fill="#45B97C" d="M369.1,360.8c-1-16.5-4.1-39.3-4.3-45.4c-0.1-6.1,2.5-10.3,2.7-14.3c0.3-3.9-4.5-8.6-6-11.2
	c-1.4-2.7-2.3-3.5-3.4-13.4s-3.8-36.5-4.4-42.9c-0.6-6.4-1.7-13,0.6-18.3s1-6.2-1-10.1c-2.1-3.9-4.8-9.7-6.9-18.4
	c-2.1-8.7-7.9-48.1-8-51.5c-0.1-3.4,1.9-10.5,2.9-13.9c0.9-3.4-4-6.3-5.7-8.8c-1.7-2.5-3.9-13.8-6.1-23.2c-2.2-9.5-3-16.3-2.1-19.2
	c0.9-2.9,2.7-7.1,0-8.8c-2.7-1.8-5.2-4.4-6.6-8.8c-1.4-4.4-5.3-17-10-31.8C306.5,6.5,303,0.5,299.7,0l0,0c-0.1,0-0.1,0-0.2,0
	c-0.1,0-0.1,0-0.2,0l0,0c-3.3,0.5-6.8,6.5-11.2,20.7c-4.7,14.8-8.6,27.4-10,31.8c-1.4,4.4-3.9,7.1-6.6,8.8c-2.7,1.8-0.9,5.9,0,8.8
	c0.9,2.9,0.1,9.7-2.1,19.2c-2.2,9.5-4.4,20.7-6.1,23.2c-1.7,2.5-6.6,5.4-5.7,8.8c0.9,3.4,3,10.5,2.9,13.9c-0.1,3.4-6,42.8-8,51.5
	c-2.1,8.7-4.8,14.5-6.9,18.4c-2.1,3.9-3.4,4.8-1,10.1s1.3,11.9,0.6,18.3c-0.6,6.4-3.4,33.1-4.4,42.9c-1,9.8-1.9,10.7-3.4,13.4
	c-1.4,2.7-6.2,7.3-6,11.2c0.3,3.9,2.9,8.2,2.7,14.3c-0.1,6.1-3.2,28.9-4.3,45.4c-1,16.5-4.1,44.7-1.6,71.4
	c2.6,26.6,7.3,63.4,19.4,86.6c10.5,20.1,28.4,29.9,51.8,29.3c23.4,0.6,41.2-9.2,51.8-29.3c12.2-23.2,16.8-59.9,19.4-86.6
	C373.3,405.5,370.2,377.2,369.1,360.8z"/>
</svg>
