<?xml version="1.0" encoding="utf-8"?>
<!-- Generator: Adobe Illustrator 17.1.0, SVG Export Plug-In . SVG Version: 6.00 Build 0)  -->
<!DOCTYPE svg PUBLIC "-//W3C//DTD SVG 1.1//EN" "http://www.w3.org/Graphics/SVG/1.1/DTD/svg11.dtd">
<svg version="1.1" id="Layer_1" xmlns="http://www.w3.org/2000/svg" xmlns:xlink="http://www.w3.org/1999/xlink" x="0px" y="0px"
	 viewBox="115.2 39.5 201.6 101.1" enable-background="new 115.2 39.5 201.6 101.1" xml:space="preserve">
<path fill="#F6EFD2" d="M159.9,109.9c-1,0-1.4,0.7-1.2,1.6l5.3,18.8h0.4l4.8-18.8c0.2-0.8-0.4-1.6-1.2-1.6h-0.5
	c-1,0-1.7-0.7-1.7-1.7v-3.5c0-1,0.7-1.7,1.7-1.7h12.6c1,0,1.7,0.7,1.7,1.7v3.7c0,1-0.7,1.7-1.7,1.7h-1.4c-1,0-1.9,0.7-2.2,1.6
	l-7.8,26.5c-0.2,0.8-1.2,1.6-2.2,1.6h-10.2c-1,0-1.9-0.7-2.2-1.6l-5.4-16.5l-5.5,16.5c-0.2,0.8-1.3,1.6-2.2,1.6h-10.6
	c-1,0-1.9-0.7-2.2-1.6l-7.8-26.6c-0.2-0.8-1.2-1.6-2.2-1.6h-1.3c-1,0-1.7-0.7-1.7-1.7v-3.7c0-1,0.7-1.7,1.7-1.7h18.9
	c1,0,1.7,0.7,1.7,1.7v3.5c0,1-0.7,1.7-1.7,1.7h-0.6c-1,0-1.4,0.7-1.2,1.6l5.1,18.8h0.2l5.8-17.2c0.2-0.6,0.2-1.6,0-2.2
	c-0.2-0.6-0.8-1.1-1.4-1.1h-1.1c-1,0-1.7-0.7-1.7-1.7v-3.5c0-1,0.7-1.7,1.7-1.7h18.1c1,0,1.7,0.7,1.7,1.7v3.5c0,1-0.7,1.7-1.7,1.7
	h-0.7V109.9z"/>
<path fill="#F6EFD2" d="M177.6,130.6c0-2.4,1-4.7,2.5-6.1c2.2-2.2,5.8-4,15.9-5.3c4.1-0.6,4.2-0.6,4.2-1.3v-3c0-4.7-2.2-6.4-6.4-6.4
	c-1.3,0-2.9,0.2-4.1,0.7c1.1,1,1.7,2.2,1.7,4c0,2.9-2.6,4.9-5.9,4.9c-4.3,0-6.4-2.6-6.4-5.9c0-7,9-10.1,18.3-10.1
	c12.2,0,15.7,5.9,15.7,13.5v15.9c0,1.7,0.7,2,1.7,2c0.6,0,1.3-0.5,1.9-2.5c0.2-0.7,1-1.2,1.8-1l1.2,0.4c0.5,0.1,0.8,0.4,1.1,0.7
	c0.2,0.4,0.2,0.8,0.1,1.3c-1.4,5.5-4.3,8.1-9.9,8.1c-4.8,0-8.6-2.5-9.4-8.3h-0.2c-0.1,0-0.1,0-0.1,0.1c-2.5,6.1-6.6,8.2-12.3,8.2
	C182.6,140.5,177.6,136.8,177.6,130.6z M200.2,124.9v-2.5c-0.7,0.1-1.6,0.2-3.5,0.6c-4.7,0.8-6,2.9-6,5.9c0,2.2,1.2,4.2,4.5,4.2
	C198.5,133.2,200.2,129.9,200.2,124.9z"/>
<path fill="#F6EFD2" d="M231.4,93.7c1-0.1,1.7,0.6,1.7,1.4v8.2h10c1,0,1.7,0.7,1.7,1.7v3.4c0,1-0.7,1.7-1.7,1.7h-10v17.2
	c0,3.3,1.2,5.2,3.6,5.2c2.2,0,3-1.4,4.2-5.5c0.2-0.8,1.1-1.4,2-1.2l1.9,0.5c0.8,0.2,1.4,1.1,1.2,1.9c-1.7,8.6-5.4,12.4-13.1,12.4
	c-8.7,0-12.9-4.3-12.9-13.7v-16.7h-4.5c-1,0-1.7-0.7-1.7-1.7V105c0-1,0.7-1.7,1.7-1.7h4.9v-6.7c0-1,0.7-1.8,1.7-1.9L231.4,93.7z"/>
<path fill="#F6EFD2" d="M256.8,123.2c0.5,8.3,3.6,10.5,9,10.5c3.9,0,6.4-1.4,7.8-5.2c0.2-0.6,0.8-1.1,1.6-1.1h3.7
	c0.5,0,1,0.2,1.3,0.6c0.4,0.4,0.5,1,0.2,1.4c-1.7,6.5-6.6,11-16.7,11c-12.5,0-20.5-7.3-20.5-18.8c0-11.2,8.4-19.5,19.8-19.5
	c12.4,0,18.4,7.6,18.4,19.4c0,1-0.7,1.7-1.7,1.7H256.8L256.8,123.2z M256.8,117.9h12c-0.4-7.7-2.3-10-5.9-10
	C259.5,107.9,257.3,110.3,256.8,117.9z"/>
<path fill="#F6EFD2" d="M279.9,134.3c0-1,0.7-1.7,1.7-1.7h1.8c1,0,1.7-0.7,1.7-1.7v-19.1c0-1-0.7-1.7-1.7-1.7h-1.8
	c-1,0-1.7-0.7-1.7-1.7v-3.7c0-1,0.7-1.7,1.7-1.7h14c1,0,1.7,0.7,1.7,1.7v8.2c2.3-7,6.4-10.7,11.7-10.7c4.7,0,7.8,3.6,7.8,7.6
	c0,4.3-2.9,7.3-6.6,7.3s-6.5-2-6.5-5.9c0-0.1,0.1-0.2,0.1-0.4c-1,0.2-2.5,1.1-3.9,2.9c-1.1,1.4-1.6,3.3-1.6,5.1v11.9
	c0,1,0.7,1.7,1.7,1.7h3.4c1,0,1.7,0.7,1.7,1.7v3.7c0,1-0.7,1.7-1.7,1.7h-21.6c-1,0-1.7-0.7-1.7-1.7v-3.5H279.9L279.9,134.3z"/>
<path fill="#F6EFD2" d="M121.5,93.2c-3.5-3.5-5.3-9.4-5.3-16.3c0-7.2,2-12.9,5.5-16.4c2.5-2.5,6-4,10-4c5.5,0,9.3,2.6,11.7,6.6V48.8
	c0-1-0.7-1.7-1.7-1.7h-2.5c-1,0-1.7-0.7-1.7-1.7v-4.2c0-1,0.7-1.7,1.7-1.7h16.4c1,0,1.7,0.7,1.7,1.7v46c0,1,0.7,1.7,1.7,1.7h2
	c1,0,1.7,0.7,1.7,1.7v4.1c0,1-0.7,1.7-1.7,1.7H146c-1,0-1.7-0.7-1.7-1.7v-6.5c-2.2,5.3-6.3,9.2-13,9.2
	C127,97.2,123.9,95.6,121.5,93.2z M144.3,76.9c0-7.1-2-12.3-7-12.3c-4.7,0-6.4,4.3-6.4,12.8c0,7.8,1.7,11.9,6.4,11.9
	C142.1,89.2,144.3,83.7,144.3,76.9z"/>
<path fill="#F6EFD2" d="M174.2,78.9c0.5,8.8,3.9,11.1,9.6,11.1c4.2,0,6.7-1.6,8.3-5.5c0.2-0.6,0.8-1.1,1.6-1.1h4.2
	c0.5,0,1,0.2,1.3,0.6s0.5,1,0.2,1.4c-1.8,7-7,11.7-17.8,11.7c-13.2,0-21.7-7.8-21.7-20c0-11.9,8.9-20.7,21-20.7
	c13.1,0,19.6,8.1,19.5,20.7c0,1-0.7,1.7-1.7,1.7h-24.5V78.9z M174.2,73.2H187c-0.4-8.2-2.4-10.6-6.3-10.6
	C177,62.6,174.7,65.1,174.2,73.2z"/>
<path fill="#F6EFD2" d="M216.8,47.5c1-0.1,1.7,0.6,1.7,1.4v8.8h10.6c1,0,1.7,0.7,1.7,1.7v3.7c0,1-0.7,1.7-1.7,1.7h-10.6v18.2
	c0,3.5,1.2,5.5,3.7,5.5c2.3,0,3.3-1.6,4.5-6c0.2-0.8,1.1-1.4,2-1.2l2.3,0.6c0.8,0.2,1.4,1.1,1.2,1.9c-1.8,9.2-5.8,13.2-14,13.2
	c-9.2,0-13.6-4.6-13.6-14.6V64.9h-4.9c-1,0-1.7-0.7-1.7-1.7v-3.7c0-1,0.7-1.7,1.7-1.7h5.3v-7.2c0-1,0.7-1.8,1.7-1.9L216.8,47.5z"/>
<path fill="#F6EFD2" d="M230,77.1c0-12,9.5-20.5,21.7-20.5c12.5,0,21.6,8.1,21.6,20.1s-9.5,20.5-21.7,20.5
	C239.1,97.2,230,89.1,230,77.1z M258.2,76.8c0-10.5-1.9-14.2-6.7-14.2c-4.7,0-6.3,4-6.3,14.3c0,10.5,1.9,14.2,6.7,14.2
	C256.5,91.1,258.2,87.2,258.2,76.8z"/>
<path fill="#F6EFD2" d="M291.8,64.8c-1,0-1.2,0.6-0.7,1.3l4.2,5.7l5.2-5.8c0.6-0.7,0.4-1.2-0.6-1.2h-0.2c-1,0-1.7-0.7-1.7-1.7v-4
	c0-1,0.7-1.7,1.7-1.7h13.1c1,0,1.7,0.7,1.7,1.7v4.1c0,1-0.7,1.7-1.7,1.7h-0.6c-1,0-2.2,0.5-2.9,1.2l-9.5,9.4l9.8,12
	c0.6,0.7,1.8,1.3,2.8,1.3h1.3c1,0,1.7,0.7,1.7,1.7v4.1c0,1-0.7,1.7-1.7,1.7h-21.1c-1,0-1.7-0.7-1.7-1.7v-4c0-1,0.7-1.7,1.7-1.7h1
	c1,0,1.2-0.6,0.7-1.3l-4.3-6l-5.4,6.1c-0.6,0.7-0.4,1.2,0.6,1.2h0.5c1,0,1.7,0.7,1.7,1.7v4c0,1-0.7,1.7-1.7,1.7h-13.4
	c-1,0-1.7-0.7-1.7-1.7v-4.1c0-1,0.7-1.7,1.7-1.7h0.6c1,0,2.2-0.5,2.9-1.2l9.9-9.9l-9.8-11.6c-0.6-0.7-1.8-1.3-2.8-1.3h-1.2
	c-1,0-1.7-0.7-1.7-1.7V59c0-1,0.7-1.7,1.7-1.7h20.8c1,0,1.7,0.7,1.7,1.7v4c0,1-0.7,1.7-1.7,1.7C292.6,64.8,291.8,64.8,291.8,64.8z"
	/>
<path fill="#F6EFD2" d="M306.3,127h-0.8v-4h-1.4v-0.7h3.9v0.7h-1.4v4H306.3z"/>
<path fill="#F6EFD2" d="M311.1,125.9L311.1,125.9l-1.4-2.2v3.4h-0.8v-4.7h0.8l1.4,2.2l1.4-2.2h0.8v4.7h-0.8v-3.4L311.1,125.9z"/>
</svg>
